<svg width="1920" height="2980" viewBox="0 0 1920 2980" fill="none" xmlns="http://www.w3.org/2000/svg">
<path opacity="0.0294118" d="M309.845 1181.35C309.845 1181.35 290.006 801.949 394.26 413.499C498.515 25.0497 717.024 755.363 1087.61 777.023C1458.19 798.683 981.786 397.416 1166.06 32.1192C1350.33 -333.177 1928.78 312.435 1928.78 312.435" stroke="#A6D058"/>
<path opacity="0.0588235" d="M289.553 1168.24C289.553 1168.24 276.338 788.545 387.356 401.975C498.375 15.4039 704.104 749.419 1074.25 777.543C1444.4 805.668 975.073 396.147 1165.69 34.1226C1356.32 -327.902 1923.41 327.707 1923.41 327.707" stroke="#A6D058"/>
<path opacity="0.0882353" d="M269.457 1154.91C269.457 1154.91 262.871 775.045 380.619 390.471C498.367 5.89662 691.255 743.39 1060.86 777.971C1430.46 812.551 968.348 394.902 1165.26 36.2588C1362.17 -322.384 1917.73 343.023 1917.73 343.023" stroke="#A6D058"/>
<path opacity="0.117647" d="M249.561 1141.37C249.561 1141.37 249.606 761.452 374.047 378.991C498.489 -3.47015 678.476 737.278 1047.42 778.303C1416.36 819.328 961.609 393.678 1164.75 38.5263C1367.89 -316.625 1911.75 358.376 1911.75 358.376" stroke="#A6D058"/>
<path opacity="0.147059" d="M229.867 1127.63C229.867 1127.63 236.543 747.767 367.64 367.537C498.738 -12.6941 665.77 731.082 1033.94 778.54C1402.11 825.998 954.857 392.476 1164.16 40.9238C1373.47 -310.629 1905.47 373.762 1905.47 373.762" stroke="#A6D058"/>
<path opacity="0.176471" d="M210.381 1113.69C210.381 1113.69 223.685 733.997 361.398 356.112C499.111 -21.7728 653.138 724.805 1020.42 778.681C1387.71 832.558 948.09 391.296 1163.5 43.4502C1378.91 -304.396 1898.89 389.175 1898.89 389.175" stroke="#A6D058"/>
<path opacity="0.205882" d="M191.104 1099.54C191.104 1099.54 211.033 720.143 355.32 344.72C499.608 -30.7044 640.581 718.448 1006.87 778.726C1373.16 839.004 941.309 390.137 1162.76 46.1039C1384.21 -297.93 1892 404.61 1892 404.61" stroke="#A6D058"/>
<path opacity="0.235294" d="M172.042 1085.2C172.042 1085.2 198.589 706.21 349.406 333.362C500.224 -39.4868 628.101 712.012 993.282 778.673C1358.46 845.335 934.512 389 1161.93 48.8833C1389.35 -291.233 1884.8 420.062 1884.8 420.062" stroke="#A6D058"/>
<path opacity="0.264706" d="M153.196 1070.67C153.196 1070.67 186.353 692.202 343.655 322.042C500.957 -48.1176 615.699 705.499 979.661 778.523C1343.62 851.548 927.701 387.883 1161.02 51.7875C1394.34 -284.308 1877.31 435.526 1877.31 435.526" stroke="#A6D058"/>
<path opacity="0.294118" d="M134.571 1055.96C134.571 1055.96 174.328 678.121 338.066 310.763C501.804 -56.5949 603.377 698.909 966.009 778.274C1328.64 857.64 920.874 386.787 1160.02 54.8146C1399.17 -277.158 1869.5 450.995 1869.5 450.995" stroke="#A6D058"/>
<path opacity="0.323529" d="M116.169 1041.06C116.169 1041.06 162.515 663.972 332.639 299.528C502.763 -64.9169 591.135 692.245 952.326 777.927C1313.52 863.609 914.031 385.711 1158.94 57.9632C1403.85 -269.785 1861.4 466.466 1861.4 466.466" stroke="#A6D058"/>
<path opacity="0.352941" d="M97.994 1025.98C97.994 1025.98 150.913 649.758 327.372 288.338C503.831 -73.0816 578.975 685.507 938.616 777.48C1298.26 869.452 907.172 384.655 1157.76 61.2316C1408.35 -262.192 1852.98 481.931 1852.98 481.931" stroke="#A6D058"/>
<path opacity="0.382353" d="M80.049 1010.72C80.049 1010.72 139.526 635.483 322.266 277.198C505.005 -81.0871 566.899 678.697 924.88 776.933C1282.86 875.168 900.296 383.62 1156.49 64.6184C1412.69 -254.383 1844.27 497.387 1844.27 497.387" stroke="#A6D058"/>
<path opacity="0.411765" d="M62.3366 995.293C62.3366 995.293 128.354 621.151 317.318 266.109C506.283 -88.932 554.907 671.817 911.119 776.285C1267.33 880.753 893.403 382.603 1155.13 68.1213C1416.85 -246.36 1835.24 512.827 1835.24 512.827" stroke="#A6D058"/>
<path opacity="0.441176" d="M44.8604 979.699C44.8604 979.699 117.397 606.765 312.529 255.076C507.661 -96.6134 543.001 664.868 897.336 775.537C1251.67 886.206 886.494 381.606 1153.67 71.7399C1420.84 -238.126 1825.92 528.248 1825.92 528.248" stroke="#A6D058"/>
<path opacity="0.470588" d="M27.6223 963.941C27.6223 963.941 106.657 592.33 307.897 244.1C509.137 -104.13 531.182 657.852 883.531 774.688C1235.88 891.524 879.566 380.627 1152.11 75.4716C1424.65 -229.684 1816.29 543.643 1816.29 543.643" stroke="#A6D058"/>
<path opacity="0.5" d="M10.6262 948.024C10.6262 948.024 96.1338 577.849 303.421 233.184C510.708 -111.482 519.451 650.769 869.708 773.737C1219.96 896.705 872.62 379.667 1150.44 79.3145C1428.27 -221.038 1806.35 559.006 1806.35 559.006" stroke="#A6D058"/>
<path opacity="0.529412" d="M-6.12571 931.952C-6.12571 931.952 85.8293 563.326 299.1 222.331C512.371 -118.664 507.809 643.623 855.866 772.685C1203.92 901.746 865.656 378.726 1148.68 83.2676C1431.7 -212.191 1796.12 574.333 1796.12 574.333" stroke="#A6D058"/>
<path opacity="0.558824" d="M-22.631 915.729C-22.631 915.729 75.7435 548.764 294.933 211.543C514.122 -125.678 496.258 636.414 842.01 771.53C1187.76 906.647 858.673 377.802 1146.81 87.3282C1434.95 -203.146 1785.58 589.618 1785.58 589.618" stroke="#A6D058"/>
<path opacity="0.588235" d="M-38.8868 899.36C-38.8868 899.36 65.8771 534.168 290.919 200.823C515.96 -132.521 484.798 629.143 828.139 770.273C1171.48 911.403 851.671 376.896 1144.83 91.4951C1438 -193.906 1774.74 604.856 1774.74 604.856" stroke="#A6D058"/>
<path opacity="0.617647" d="M-54.8901 882.849C-54.8901 882.849 56.2313 519.541 287.056 190.175C517.881 -139.191 473.43 621.813 814.256 768.914C1155.08 916.014 844.65 376.007 1142.75 95.7659C1440.85 -184.475 1763.6 620.042 1763.6 620.042" stroke="#A6D058"/>
<path opacity="0.647059" d="M-70.6392 866.201C-70.6392 866.201 46.8059 504.887 283.344 179.6C519.882 -145.687 462.157 614.425 800.363 767.451C1138.57 920.478 837.61 375.135 1140.56 100.139C1443.5 -174.856 1752.16 635.171 1752.16 635.171" stroke="#A6D058"/>
<path opacity="0.676471" d="M-86.1315 849.42C-86.1315 849.42 37.6015 490.211 279.78 169.101C521.959 -152.009 450.977 606.98 786.462 765.886C1121.95 924.792 830.55 374.28 1138.25 104.613C1445.95 -165.054 1740.42 650.237 1740.42 650.237" stroke="#A6D058"/>
<path opacity="0.705882" d="M-101.365 832.509C-101.365 832.509 28.6186 475.515 276.365 158.68C524.111 -158.154 439.893 599.481 772.553 764.218C1105.21 928.954 823.469 373.44 1135.83 109.185C1448.19 -155.071 1728.39 665.235 1728.39 665.235" stroke="#A6D058"/>
<path opacity="0.735294" d="M-116.337 815.476C-116.337 815.476 19.8573 460.804 273.095 148.342C526.333 -164.12 428.906 591.929 758.64 762.447C1088.37 932.964 816.368 372.617 1133.29 113.853C1450.21 -144.911 1716.06 680.161 1716.06 680.161" stroke="#A6D058"/>
<path opacity="0.764706" d="M-131.045 798.323C-131.045 798.323 11.3182 446.082 269.971 138.087C528.623 -169.908 418.016 584.326 744.724 760.572C1071.43 936.818 809.247 371.809 1130.64 118.616C1452.03 -134.578 1703.43 695.008 1703.43 695.008" stroke="#A6D058"/>
<path opacity="0.794118" d="M-145.488 781.055C-145.488 781.055 3.00123 431.352 266.99 127.918C530.978 -175.516 407.224 576.673 730.807 758.594C1054.39 940.515 802.105 371.017 1127.86 123.471C1453.62 -124.075 1690.51 709.772 1690.51 709.772" stroke="#A6D058"/>
<path opacity="0.823529" d="M-159.663 763.677C-159.663 763.677 -5.09378 416.619 264.15 117.838C533.394 -180.942 396.532 568.972 716.89 756.513C1037.25 944.053 794.941 370.239 1124.97 128.416C1455 -113.407 1677.3 724.447 1677.3 724.447" stroke="#A6D058"/>
<path opacity="0.852941" d="M-173.57 746.193C-173.57 746.193 -12.9667 401.886 261.451 107.85C535.868 -186.186 385.939 561.225 702.975 754.328C1020.01 947.431 787.756 369.475 1121.96 133.449C1456.16 -102.577 1663.8 739.029 1663.8 739.029" stroke="#A6D058"/>
<path opacity="0.882353" d="M-187.204 728.609C-187.204 728.609 -20.617 387.157 258.89 97.9548C538.397 -191.247 375.447 553.434 689.065 752.041C1002.68 950.647 780.549 368.726 1118.82 138.568C1457.09 -91.5894 1650.01 753.512 1650.01 753.512" stroke="#A6D058"/>
<path opacity="0.911765" d="M-200.566 710.929C-200.566 710.929 -28.0453 372.436 256.467 88.1563C540.978 -196.124 365.056 545.6 675.16 749.65C985.264 953.7 773.32 367.99 1115.55 143.771C1457.79 -80.4477 1635.93 767.892 1635.93 767.892" stroke="#A6D058"/>
<path opacity="0.941176" d="M-213.654 693.158C-213.654 693.158 -35.252 357.727 254.178 78.4561C543.608 -200.815 354.767 537.726 661.263 747.156C967.759 956.587 766.069 367.268 1112.16 149.056C1458.26 -69.1562 1621.57 782.163 1621.57 782.163" stroke="#A6D058"/>
<path opacity="0.970588" d="M-226.466 675.3C-226.466 675.3 -42.2368 343.034 252.023 68.8568C546.283 -205.321 344.582 529.812 647.376 744.56C950.17 959.308 758.796 366.558 1108.65 154.42C1458.5 -57.7189 1606.93 796.321 1606.93 796.321" stroke="#A6D058"/>
<path d="M-239 657.36C-239 657.36 -49 328.36 250 59.3604C549 -209.64 334.5 521.861 633.5 741.86C932.5 961.86 751.5 365.861 1105 159.86C1458.5 -46.1401 1592 810.36 1592 810.36" stroke="#A6D058"/>
<path opacity="0.0294118" d="M1743.99 -149.259C1743.99 -149.259 1768.68 230.145 1638.94 618.595C1509.2 1007.04 1237.28 276.731 776.109 255.071C314.938 233.411 907.797 634.678 678.478 999.975C449.159 1365.27 -270.687 719.659 -270.687 719.659" stroke="#A6D058"/>
<path opacity="0.0588235" d="M1769.25 -136.144C1769.25 -136.144 1785.69 243.548 1647.53 630.119C1509.38 1016.69 1253.36 282.675 792.728 254.55C332.098 226.426 916.152 635.946 678.934 997.971C441.716 1360 -263.998 704.387 -263.998 704.387" stroke="#A6D058"/>
<path opacity="0.0882353" d="M1794.25 -122.817C1794.25 -122.817 1802.45 257.048 1655.92 641.623C1509.39 1026.2 1269.35 288.703 809.398 254.123C349.45 219.543 924.52 637.192 679.475 995.835C434.431 1354.48 -256.937 689.071 -256.937 689.071" stroke="#A6D058"/>
<path opacity="0.117647" d="M1819.01 -109.28C1819.01 -109.28 1818.96 270.642 1664.1 653.103C1509.24 1035.56 1285.25 294.816 826.123 253.791C366.995 212.765 932.907 638.416 680.111 993.567C427.314 1348.72 -249.496 673.718 -249.496 673.718" stroke="#A6D058"/>
<path opacity="0.147059" d="M1843.52 -95.5374C1843.52 -95.5374 1835.21 284.326 1672.07 664.557C1508.92 1044.79 1301.06 301.012 842.895 253.554C384.728 206.096 941.309 639.618 680.838 991.17C420.367 1342.72 -241.681 658.332 -241.681 658.332" stroke="#A6D058"/>
<path opacity="0.176471" d="M1867.77 -81.5926C1867.77 -81.5926 1851.21 298.097 1679.84 675.982C1508.46 1053.87 1316.78 307.288 859.716 253.412C402.65 199.536 949.731 640.798 681.664 988.644C413.597 1336.49 -233.485 642.919 -233.485 642.919" stroke="#A6D058"/>
<path opacity="0.205882" d="M1891.76 -67.4488C1891.76 -67.4488 1866.96 311.951 1687.4 687.374C1507.84 1062.8 1332.41 313.646 876.581 253.368C420.755 193.09 958.169 641.957 682.588 985.99C407.007 1330.02 -224.913 627.484 -224.913 627.484" stroke="#A6D058"/>
<path opacity="0.235294" d="M1915.48 -53.1101C1915.48 -53.1101 1882.44 325.884 1694.76 698.732C1507.08 1071.58 1347.94 320.082 893.49 253.421C439.042 186.759 966.626 643.094 683.615 983.211C400.604 1323.33 -215.962 612.032 -215.962 612.032" stroke="#A6D058"/>
<path opacity="0.264706" d="M1938.93 -38.581C1938.93 -38.581 1897.67 339.892 1701.92 710.051C1506.16 1080.21 1363.37 326.595 910.441 253.57C457.51 180.546 975.102 644.21 684.748 980.306C394.393 1316.4 -206.631 596.568 -206.631 596.568" stroke="#A6D058"/>
<path opacity="0.294118" d="M1962.11 -23.8637C1962.11 -23.8637 1912.64 353.973 1708.87 721.331C1505.11 1088.69 1378.71 333.185 927.431 253.819C476.155 174.454 983.599 645.307 685.989 977.279C388.379 1309.25 -196.92 581.099 -196.92 581.099" stroke="#A6D058"/>
<path opacity="0.323529" d="M1985.01 -8.9632C1985.01 -8.9632 1927.34 368.122 1715.63 732.566C1503.92 1097.01 1393.94 339.849 944.458 254.167C494.974 168.485 992.114 646.383 687.339 974.131C382.565 1301.88 -186.83 565.628 -186.83 565.628" stroke="#A6D058"/>
<path opacity="0.352941" d="M2007.63 6.11703C2007.63 6.11703 1941.77 382.336 1722.18 743.756C1502.59 1105.18 1409.08 346.587 961.521 254.614C513.967 162.641 1000.65 647.438 688.805 970.862C376.959 1294.29 -176.359 550.163 -176.359 550.163" stroke="#A6D058"/>
<path opacity="0.382353" d="M2029.96 21.3723C2029.96 21.3723 1955.94 396.61 1728.53 754.895C1501.12 1113.18 1424.1 353.396 978.613 255.161C533.124 156.925 1009.21 648.474 690.383 967.475C371.56 1286.48 -165.513 534.706 -165.513 534.706" stroke="#A6D058"/>
<path opacity="0.411765" d="M2052 36.8004C2052 36.8004 1969.85 410.943 1734.69 765.984C1499.54 1121.03 1439.03 360.277 995.738 255.809C552.451 151.341 1017.78 649.491 692.082 963.972C366.379 1278.45 -154.284 519.266 -154.284 519.266" stroke="#A6D058"/>
<path opacity="0.441176" d="M2073.75 52.3949C2073.75 52.3949 1983.48 425.328 1740.65 777.018C1497.82 1128.71 1453.84 367.226 1012.89 256.557C571.94 145.888 1026.38 650.488 693.9 960.354C361.417 1270.22 -142.678 503.846 -142.678 503.846" stroke="#A6D058"/>
<path opacity="0.470588" d="M2095.2 68.153C2095.2 68.153 1996.85 439.764 1746.42 787.994C1495.98 1136.22 1468.55 374.242 1030.07 257.406C591.59 140.57 1035 651.467 695.842 956.622C356.68 1261.78 -130.694 488.451 -130.694 488.451" stroke="#A6D058"/>
<path opacity="0.5" d="M2116.35 84.0701C2116.35 84.0701 2009.94 454.245 1751.99 798.91C1494.03 1143.58 1483.15 381.324 1047.27 258.357C611.396 135.389 1043.65 652.426 697.909 952.779C352.171 1253.13 -118.334 473.088 -118.334 473.088" stroke="#A6D058"/>
<path opacity="0.529412" d="M2137.2 100.142C2137.2 100.142 2022.77 468.768 1757.36 809.763C1491.96 1150.76 1497.64 388.471 1064.5 259.409C631.358 130.347 1052.31 653.368 700.105 948.826C347.896 1244.28 -105.595 457.761 -105.595 457.761" stroke="#A6D058"/>
<path opacity="0.558824" d="M2157.74 116.365C2157.74 116.365 2035.32 483.33 1762.55 820.551C1489.78 1157.77 1512.01 395.68 1081.74 260.564C651.472 125.447 1061 654.292 702.433 944.766C343.86 1235.24 -92.4796 442.476 -92.4796 442.476" stroke="#A6D058"/>
<path opacity="0.588235" d="M2177.97 132.734C2177.97 132.734 2047.6 497.926 1767.54 831.271C1487.49 1164.61 1526.27 402.951 1099 261.821C671.733 120.691 1069.72 655.198 704.892 940.599C340.066 1226 -78.9902 427.238 -78.9902 427.238" stroke="#A6D058"/>
<path opacity="0.617647" d="M2197.88 149.245C2197.88 149.245 2059.6 512.553 1772.35 841.919C1485.1 1171.28 1540.42 410.281 1116.28 263.18C692.139 116.079 1078.45 656.087 707.485 936.328C336.516 1216.57 -65.1282 412.051 -65.1282 412.051" stroke="#A6D058"/>
<path opacity="0.647059" d="M2217.48 165.893C2217.48 165.893 2071.33 527.206 1776.97 852.494C1482.61 1177.78 1554.45 417.669 1133.57 264.642C712.687 111.616 1087.22 656.958 710.216 931.954C333.217 1206.95 -50.8932 396.922 -50.8932 396.922" stroke="#A6D058"/>
<path opacity="0.676471" d="M2236.76 182.674C2236.76 182.674 2082.78 541.883 1781.4 862.993C1480.03 1184.1 1568.36 425.113 1150.87 266.207C733.374 107.302 1096 657.814 713.087 927.481C330.173 1197.15 -36.2856 381.856 -36.2856 381.856" stroke="#A6D058"/>
<path opacity="0.705882" d="M2255.72 199.584C2255.72 199.584 2093.96 556.579 1785.66 873.413C1477.35 1190.25 1582.15 432.613 1168.18 267.876C754.198 103.139 1104.81 658.654 716.101 922.909C327.388 1187.16 -21.308 366.858 -21.308 366.858" stroke="#A6D058"/>
<path opacity="0.735294" d="M2274.35 216.618C2274.35 216.618 2104.87 571.29 1789.73 883.752C1474.58 1196.21 1595.83 440.165 1185.49 269.648C775.153 99.1304 1113.65 659.477 719.258 918.241C324.865 1177 -5.96187 351.933 -5.96187 351.933" stroke="#A6D058"/>
<path opacity="0.764706" d="M2292.66 233.771C2292.66 233.771 2115.49 586.012 1793.61 894.007C1471.73 1202 1609.38 447.768 1202.81 271.522C796.237 95.2759 1122.51 660.284 722.56 913.478C322.607 1166.67 9.74988 337.086 9.74988 337.086" stroke="#A6D058"/>
<path opacity="0.794118" d="M2310.63 251.039C2310.63 251.039 2125.84 600.742 1797.32 904.176C1468.8 1207.61 1622.81 455.421 1220.13 273.5C817.447 91.5791 1131.4 661.077 726.011 908.623C320.621 1156.17 25.8285 322.322 25.8285 322.322" stroke="#A6D058"/>
<path opacity="0.823529" d="M2328.27 268.417C2328.27 268.417 2135.92 615.475 1800.86 914.256C1465.8 1213.04 1636.11 463.122 1237.45 275.581C838.777 88.0407 1140.32 661.855 729.61 903.678C318.905 1145.5 42.2678 307.647 42.2678 307.647" stroke="#A6D058"/>
<path opacity="0.852941" d="M2345.57 285.901C2345.57 285.901 2145.71 630.208 1804.21 924.244C1462.72 1218.28 1649.3 470.869 1254.76 277.766C860.226 84.6628 1149.26 662.619 733.361 898.645C317.466 1134.67 59.0682 293.065 59.0682 293.065" stroke="#A6D058"/>
<path opacity="0.882353" d="M2362.54 303.485C2362.54 303.485 2155.24 644.937 1807.4 934.139C1459.57 1223.34 1662.36 478.66 1272.07 280.053C881.793 81.4468 1158.23 663.368 737.269 893.526C316.312 1123.68 76.2314 278.582 76.2314 278.582" stroke="#A6D058"/>
<path opacity="0.911765" d="M2379.17 321.165C2379.17 321.165 2164.48 659.658 1810.42 943.937C1456.36 1228.22 1675.28 486.493 1289.38 282.444C903.469 78.394 1167.22 664.103 741.33 888.322C315.438 1112.54 93.7483 264.202 93.7483 264.202" stroke="#A6D058"/>
<path opacity="0.941176" d="M2395.46 338.936C2395.46 338.936 2173.45 674.367 1813.27 953.638C1453.09 1232.91 1688.09 494.368 1306.67 284.938C925.253 75.5071 1176.25 664.826 745.548 883.038C314.851 1101.25 111.62 249.931 111.62 249.931" stroke="#A6D058"/>
<path opacity="0.970588" d="M2411.4 356.794C2411.4 356.794 2182.14 689.06 1815.95 963.237C1449.76 1237.41 1700.76 502.282 1323.95 287.534C947.142 72.7863 1185.3 665.536 749.925 877.674C314.555 1089.81 129.844 235.773 129.844 235.773" stroke="#A6D058"/>
<path d="M2427 374.734C2427 374.734 2190.56 703.734 1818.47 972.734C1446.38 1241.73 1713.31 510.233 1341.22 290.234C969.131 70.234 1194.38 666.233 754.464 872.234C314.552 1078.23 148.418 221.734 148.418 221.734" stroke="#A6D058"/>
<path opacity="0.0294118" d="M1568.99 1423.74C1568.99 1423.74 1593.68 1803.15 1463.94 2191.59C1334.2 2580.04 1062.28 1849.73 601.109 1828.07C139.938 1806.41 732.797 2207.68 503.478 2572.97C274.159 2938.27 -445.687 2292.66 -445.687 2292.66" stroke="#A6D058"/>
<path opacity="0.0588235" d="M1594.25 1436.86C1594.25 1436.86 1610.69 1816.55 1472.53 2203.12C1334.38 2589.69 1078.36 1855.67 617.728 1827.55C157.098 1799.43 741.152 2208.95 503.934 2570.97C266.715 2933 -438.998 2277.39 -438.998 2277.39" stroke="#A6D058"/>
<path opacity="0.0882353" d="M1619.25 1450.18C1619.25 1450.18 1627.45 1830.05 1480.92 2214.62C1334.39 2599.2 1094.35 1861.7 634.399 1827.12C174.45 1792.54 749.52 2210.19 504.476 2568.83C259.431 2927.48 -431.936 2262.07 -431.936 2262.07" stroke="#A6D058"/>
<path opacity="0.117647" d="M1644.01 1463.72C1644.01 1463.72 1643.96 1843.64 1489.1 2226.1C1334.24 2608.56 1110.25 1867.82 651.122 1826.79C191.994 1785.77 757.907 2211.42 505.11 2566.57C252.314 2921.72 -424.497 2246.72 -424.497 2246.72" stroke="#A6D058"/>
<path opacity="0.147059" d="M1668.52 1477.46C1668.52 1477.46 1660.21 1857.33 1497.07 2237.56C1333.92 2617.79 1126.06 1874.01 667.895 1826.55C209.728 1779.1 766.309 2212.62 505.838 2564.17C245.367 2915.72 -416.681 2231.33 -416.681 2231.33" stroke="#A6D058"/>
<path opacity="0.176471" d="M1692.77 1491.41C1692.77 1491.41 1676.21 1871.1 1504.84 2248.98C1333.46 2626.87 1141.78 1880.29 684.716 1826.41C227.65 1772.54 774.731 2213.8 506.664 2561.64C238.597 2909.49 -408.485 2215.92 -408.485 2215.92" stroke="#A6D058"/>
<path opacity="0.205882" d="M1716.76 1505.55C1716.76 1505.55 1691.96 1884.95 1512.4 2260.37C1332.84 2635.8 1157.41 1886.65 701.582 1826.37C245.755 1766.09 783.169 2214.96 507.589 2558.99C232.008 2903.02 -399.913 2200.48 -399.913 2200.48" stroke="#A6D058"/>
<path opacity="0.235294" d="M1740.48 1519.89C1740.48 1519.89 1707.44 1898.88 1519.76 2271.73C1332.08 2644.58 1172.94 1893.08 718.49 1826.42C264.042 1759.76 791.626 2216.09 508.615 2556.21C225.604 2896.33 -390.962 2185.03 -390.962 2185.03" stroke="#A6D058"/>
<path opacity="0.264706" d="M1763.93 1534.42C1763.93 1534.42 1722.67 1912.89 1526.92 2283.05C1331.16 2653.21 1188.37 1899.59 735.441 1826.57C282.51 1753.55 800.102 2217.21 509.748 2553.31C219.393 2889.4 -381.631 2169.57 -381.631 2169.57" stroke="#A6D058"/>
<path opacity="0.294118" d="M1787.11 1549.14C1787.11 1549.14 1737.63 1926.97 1533.87 2294.33C1330.11 2661.69 1203.71 1906.18 752.431 1826.82C301.155 1747.45 808.598 2218.31 510.988 2550.28C213.379 2882.25 -371.92 2154.1 -371.92 2154.1" stroke="#A6D058"/>
<path opacity="0.323529" d="M1810.01 1564.04C1810.01 1564.04 1752.34 1941.12 1540.63 2305.57C1328.92 2670.01 1218.94 1912.85 769.458 1827.17C319.975 1741.48 817.114 2219.38 512.34 2547.13C207.565 2874.88 -361.83 2138.63 -361.83 2138.63" stroke="#A6D058"/>
<path opacity="0.352941" d="M1832.63 1579.12C1832.63 1579.12 1766.77 1955.34 1547.18 2316.76C1327.59 2678.18 1234.07 1919.59 786.52 1827.61C338.966 1735.64 825.651 2220.44 513.805 2543.86C201.959 2867.29 -351.359 2123.16 -351.359 2123.16" stroke="#A6D058"/>
<path opacity="0.382353" d="M1854.96 1594.37C1854.96 1594.37 1780.94 1969.61 1553.53 2327.9C1326.12 2686.18 1249.1 1926.4 803.613 1828.16C358.124 1729.93 834.206 2221.47 515.383 2540.48C196.56 2859.48 -340.513 2107.71 -340.513 2107.71" stroke="#A6D058"/>
<path opacity="0.411765" d="M1877 1609.8C1877 1609.8 1794.85 1983.94 1559.69 2338.98C1324.54 2694.03 1264.03 1933.28 820.738 1828.81C377.451 1724.34 842.784 2222.49 517.082 2536.97C191.379 2851.45 -329.284 2092.27 -329.284 2092.27" stroke="#A6D058"/>
<path opacity="0.441176" d="M1898.75 1625.39C1898.75 1625.39 1808.48 1998.33 1565.65 2350.02C1322.82 2701.71 1278.84 1940.23 837.891 1829.56C396.94 1718.89 851.384 2223.49 518.9 2533.35C186.417 2843.22 -317.678 2076.85 -317.678 2076.85" stroke="#A6D058"/>
<path opacity="0.470588" d="M1920.2 1641.15C1920.2 1641.15 1821.85 2012.76 1571.42 2360.99C1320.98 2709.22 1293.55 1947.24 855.07 1830.41C416.59 1713.57 860.005 2224.47 520.842 2529.62C181.68 2834.78 -305.694 2061.45 -305.694 2061.45" stroke="#A6D058"/>
<path opacity="0.5" d="M1941.35 1657.07C1941.35 1657.07 1834.94 2027.24 1576.99 2371.91C1319.03 2716.58 1308.15 1954.32 872.272 1831.36C436.396 1708.39 868.648 2225.43 522.909 2525.78C177.171 2826.13 -293.334 2046.09 -293.334 2046.09" stroke="#A6D058"/>
<path opacity="0.529412" d="M1962.2 1673.14C1962.2 1673.14 1847.77 2041.77 1582.36 2382.76C1316.96 2723.76 1322.64 1961.47 889.497 1832.41C456.358 1703.35 877.314 2226.37 525.105 2521.83C172.896 2817.28 -280.595 2030.76 -280.595 2030.76" stroke="#A6D058"/>
<path opacity="0.558824" d="M1982.74 1689.36C1982.74 1689.36 1860.32 2056.33 1587.55 2393.55C1314.78 2730.77 1337.01 1968.68 906.742 1833.56C476.472 1698.45 886.005 2227.29 527.433 2517.77C168.86 2808.24 -267.48 2015.48 -267.48 2015.48" stroke="#A6D058"/>
<path opacity="0.588235" d="M2002.97 1705.73C2002.97 1705.73 1872.6 2070.93 1592.54 2404.27C1312.49 2737.61 1351.27 1975.95 924.003 1834.82C496.733 1693.69 894.718 2228.2 529.892 2513.6C165.066 2799 -253.99 2000.24 -253.99 2000.24" stroke="#A6D058"/>
<path opacity="0.617647" d="M2022.88 1722.24C2022.88 1722.24 1884.6 2085.55 1597.35 2414.92C1310.1 2744.28 1365.42 1983.28 941.278 1836.18C517.139 1689.08 903.454 2229.09 532.485 2509.33C161.516 2789.57 -240.128 1985.05 -240.128 1985.05" stroke="#A6D058"/>
<path opacity="0.647059" d="M2042.48 1738.89C2042.48 1738.89 1896.33 2100.21 1601.97 2425.49C1307.61 2750.78 1379.45 1990.67 958.567 1837.64C537.687 1684.62 912.215 2229.96 535.216 2504.95C158.217 2779.95 -225.893 1969.92 -225.893 1969.92" stroke="#A6D058"/>
<path opacity="0.676471" d="M2061.76 1755.67C2061.76 1755.67 1907.78 2114.88 1606.4 2435.99C1305.03 2757.1 1393.36 1998.11 975.867 1839.21C558.374 1680.3 921.002 2230.81 538.087 2500.48C155.173 2770.15 -211.286 1954.86 -211.286 1954.86" stroke="#A6D058"/>
<path opacity="0.705882" d="M2080.72 1772.58C2080.72 1772.58 1918.96 2129.58 1610.66 2446.41C1302.35 2763.25 1407.15 2005.61 993.175 1840.88C579.198 1676.14 929.814 2231.65 541.101 2495.91C152.388 2760.16 -196.308 1939.86 -196.308 1939.86" stroke="#A6D058"/>
<path opacity="0.735294" d="M2099.35 1789.62C2099.35 1789.62 1929.87 2144.29 1614.73 2456.75C1299.58 2769.21 1420.83 2013.16 1010.49 1842.65C600.153 1672.13 938.651 2232.48 544.258 2491.24C149.865 2750 -180.962 1924.93 -180.962 1924.93" stroke="#A6D058"/>
<path opacity="0.764706" d="M2117.66 1806.77C2117.66 1806.77 1940.49 2159.01 1618.61 2467.01C1296.73 2775 1434.38 2020.77 1027.81 1844.52C621.237 1668.28 947.513 2233.28 547.56 2486.48C147.607 2739.67 -165.25 1910.09 -165.25 1910.09" stroke="#A6D058"/>
<path opacity="0.794118" d="M2135.63 1824.04C2135.63 1824.04 1950.84 2173.74 1622.32 2477.18C1293.8 2780.61 1447.81 2028.42 1045.13 1846.5C642.447 1664.58 956.402 2234.08 551.011 2481.62C145.621 2729.17 -149.171 1895.32 -149.171 1895.32" stroke="#A6D058"/>
<path opacity="0.823529" d="M2153.27 1841.42C2153.27 1841.42 1960.92 2188.48 1625.86 2487.26C1290.8 2786.04 1461.11 2036.12 1062.45 1848.58C663.777 1661.04 965.316 2234.86 554.61 2476.68C143.905 2718.5 -132.732 1880.65 -132.732 1880.65" stroke="#A6D058"/>
<path opacity="0.852941" d="M2170.57 1858.9C2170.57 1858.9 1970.71 2203.21 1629.21 2497.24C1287.72 2791.28 1474.3 2043.87 1079.76 1850.77C685.226 1657.66 974.256 2235.62 558.361 2471.64C142.466 2707.67 -115.932 1866.07 -115.932 1866.07" stroke="#A6D058"/>
<path opacity="0.882353" d="M2187.54 1876.49C2187.54 1876.49 1980.24 2217.94 1632.4 2507.14C1284.57 2796.34 1487.36 2051.66 1097.07 1853.05C706.793 1654.45 983.227 2236.37 562.269 2466.53C141.312 2696.68 -98.7686 1851.58 -98.7686 1851.58" stroke="#A6D058"/>
<path opacity="0.911765" d="M2204.17 1894.16C2204.17 1894.16 1989.48 2232.66 1635.42 2516.94C1281.36 2801.22 1500.28 2059.49 1114.38 1855.44C728.469 1651.39 992.222 2237.1 566.33 2461.32C140.438 2685.54 -81.2517 1837.2 -81.2517 1837.2" stroke="#A6D058"/>
<path opacity="0.941176" d="M2220.46 1911.94C2220.46 1911.94 1998.45 2247.37 1638.27 2526.64C1278.09 2805.91 1513.09 2067.37 1131.67 1857.94C750.253 1648.51 1001.25 2237.83 570.548 2456.04C139.851 2674.25 -63.3796 1822.93 -63.3796 1822.93" stroke="#A6D058"/>
<path opacity="0.970588" d="M2236.4 1929.79C2236.4 1929.79 2007.14 2262.06 1640.95 2536.24C1274.76 2810.41 1525.76 2075.28 1148.95 1860.53C772.142 1645.79 1010.3 2238.54 574.925 2450.67C139.555 2662.81 -45.1557 1808.77 -45.1557 1808.77" stroke="#A6D058"/>
<path d="M2252 1947.73C2252 1947.73 2015.56 2276.73 1643.47 2545.73C1271.38 2814.73 1538.31 2083.23 1166.22 1863.23C794.131 1643.23 1019.38 2239.23 579.464 2445.23C139.552 2651.23 -26.5816 1794.73 -26.5816 1794.73" stroke="#A6D058"/>
</svg>
