<svg width="135" height="40" viewBox="0 0 135 40" fill="none" xmlns="http://www.w3.org/2000/svg">
<g clip-path="url(#clip0_4025_116)">
<g clip-path="url(#clip1_4025_116)">
<path d="M134.03 35.27C134.03 37.37 132.33 39.1 130.2 39.1H4.73002C2.60002 39.1 0.900024 37.38 0.900024 35.27V4.72002C0.900024 2.63002 2.60002 0.900024 4.72002 0.900024H130.2C132.32 0.900024 134.03 2.60002 134.03 4.72002V35.27Z" fill="black"/>
<path d="M30.13 19.78C30.1 16.56 32.77 14.98 32.89 14.92C31.37 12.72 29.03 12.42 28.19 12.39C26.24 12.17 24.33 13.56 23.33 13.56C22.3 13.56 20.76 12.4 19.1 12.44C16.97 12.47 14.97 13.71 13.87 15.64C11.6 19.54 13.29 25.32 15.47 28.49C16.55 30.04 17.82 31.79 19.47 31.72C21.1 31.65 21.71 30.68 23.67 30.68C25.61 30.68 26.17 31.71 27.87 31.68C29.62 31.64 30.72 30.11 31.77 28.54C33.02 26.76 33.53 25.01 33.55 24.92C33.51 24.9 30.15 23.62 30.13 19.76V19.78ZM26.93 10.3C27.8 9.19997 28.4 7.72997 28.23 6.21997C26.97 6.26997 25.39 7.08997 24.48 8.15997C23.68 9.09997 22.95 10.66 23.14 12.1C24.56 12.2 26.02 11.38 26.94 10.3H26.93ZM53.64 31.5H51.37L50.13 27.6H45.8L44.62 31.5H42.42L46.69 18.2H49.33L53.63 31.5H53.64ZM49.74 25.95L48.64 22.48C48.51 22.12 48.29 21.28 47.96 19.98H47.92C47.79 20.54 47.58 21.38 47.29 22.48L46.17 25.95H49.75H49.74ZM64.66 26.6C64.66 28.22 64.22 29.5 63.34 30.46C62.54 31.3 61.57 31.72 60.4 31.72C59.13 31.72 58.23 31.27 57.67 30.36H57.63V35.41H55.5V25.08C55.5 24.05 55.47 23 55.42 21.92H57.3L57.42 23.45H57.46C58.16 22.3 59.26 21.73 60.69 21.73C61.82 21.73 62.76 22.19 63.52 23.08C64.27 23.98 64.65 25.16 64.65 26.62L64.66 26.6ZM62.49 26.67C62.49 25.73 62.27 24.97 61.85 24.37C61.39 23.72 60.77 23.41 59.99 23.41C59.47 23.41 58.99 23.59 58.56 23.94C58.13 24.29 57.86 24.74 57.72 25.31C57.66 25.58 57.62 25.79 57.62 25.96V27.56C57.62 28.26 57.84 28.86 58.27 29.33C58.69 29.81 59.25 30.05 59.93 30.05C60.73 30.05 61.36 29.75 61.81 29.13C62.26 28.51 62.48 27.69 62.48 26.68L62.49 26.67ZM75.7 26.6C75.7 28.22 75.26 29.5 74.37 30.46C73.59 31.3 72.6 31.72 71.43 31.72C70.17 31.72 69.26 31.27 68.71 30.36H68.68V35.41H66.55V25.08C66.55 24.05 66.52 23 66.47 21.92H68.34L68.46 23.45H68.5C69.2 22.3 70.28 21.73 71.73 21.73C72.86 21.73 73.81 22.19 74.56 23.08C75.32 23.98 75.7 25.16 75.7 26.62V26.6ZM73.53 26.67C73.53 25.73 73.33 24.97 72.89 24.37C72.42 23.72 71.81 23.41 71.03 23.41C70.5 23.41 70.03 23.59 69.6 23.94C69.18 24.29 68.9 24.74 68.77 25.31C68.7 25.58 68.67 25.79 68.67 25.96V27.56C68.67 28.26 68.87 28.86 69.31 29.33C69.75 29.81 70.31 30.05 70.99 30.05C71.79 30.05 72.42 29.75 72.87 29.13C73.31 28.51 73.54 27.69 73.54 26.68L73.53 26.67ZM88.04 27.77C88.04 28.9 87.64 29.82 86.86 30.54C85.99 31.31 84.78 31.7 83.23 31.7C81.8 31.7 80.65 31.43 79.78 30.87L80.28 29.09C81.21 29.65 82.24 29.93 83.36 29.93C84.16 29.93 84.79 29.75 85.24 29.39C85.68 29.03 85.91 28.54 85.91 27.94C85.91 27.4 85.73 26.94 85.36 26.57C85 26.2 84.38 25.87 83.53 25.54C81.2 24.67 80.03 23.4 80.03 21.74C80.03 20.64 80.43 19.74 81.26 19.04C82.06 18.34 83.16 17.99 84.52 17.99C85.74 17.99 86.74 18.19 87.55 18.62L87 20.37C86.24 19.97 85.4 19.77 84.45 19.77C83.7 19.77 83.11 19.94 82.69 20.31C82.32 20.65 82.15 21.05 82.15 21.53C82.15 22.05 82.35 22.49 82.75 22.83C83.11 23.15 83.75 23.49 84.69 23.86C85.84 24.32 86.69 24.86 87.22 25.48C87.76 26.08 88.02 26.86 88.02 27.78L88.04 27.77ZM95.1 23.5H92.74V28.17C92.74 29.35 93.14 29.94 93.98 29.94C94.36 29.94 94.68 29.91 94.93 29.84L94.99 31.46C94.56 31.62 94.01 31.7 93.32 31.7C92.48 31.7 91.82 31.44 91.34 30.93C90.87 30.43 90.64 29.55 90.64 28.33V23.51H89.24V21.91H90.64V20.16L92.74 19.53V21.93H95.08V23.53L95.1 23.5ZM105.7 26.63C105.7 28.1 105.27 29.31 104.43 30.26C103.53 31.23 102.37 31.72 100.91 31.72C99.51 31.72 98.39 31.25 97.56 30.32C96.72 29.39 96.3 28.22 96.3 26.79C96.3 25.29 96.72 24.07 97.6 23.12C98.45 22.18 99.6 21.7 101.07 21.7C102.47 21.7 103.61 22.18 104.47 23.1C105.27 24.02 105.69 25.2 105.69 26.63H105.7ZM103.48 26.7C103.48 25.8 103.28 25.05 102.91 24.42C102.47 23.65 101.83 23.27 101.01 23.27C100.15 23.27 99.49 23.65 99.05 24.42C98.65 25.05 98.48 25.82 98.48 26.74C98.48 27.62 98.66 28.38 99.05 29.01C99.51 29.79 100.15 30.17 100.98 30.17C101.8 30.17 102.44 29.77 102.9 29C103.28 28.35 103.48 27.58 103.48 26.7ZM112.62 23.78C112.42 23.74 112.18 23.72 111.95 23.72C111.2 23.72 110.62 24.02 110.21 24.57C109.87 25.07 109.69 25.71 109.69 26.47V31.5H107.56L107.58 24.93C107.58 23.83 107.55 22.83 107.5 21.91H109.34L109.42 23.76H109.48C109.71 23.12 110.06 22.62 110.55 22.23C111.02 21.89 111.53 21.73 112.09 21.73C112.29 21.73 112.45 21.73 112.61 21.76V23.79L112.62 23.78ZM122.16 26.25C122.16 26.63 122.13 26.95 122.08 27.22H115.68C115.71 28.17 116.02 28.89 116.61 29.39C117.16 29.83 117.86 30.05 118.71 30.05C119.66 30.05 120.51 29.9 121.31 29.6L121.63 31.1C120.73 31.48 119.65 31.68 118.43 31.68C116.93 31.68 115.76 31.24 114.91 30.38C114.06 29.48 113.64 28.32 113.64 26.85C113.64 25.4 114.04 24.19 114.82 23.23C115.66 22.21 116.78 21.69 118.19 21.69C119.57 21.69 120.62 22.19 121.33 23.22C121.9 24.04 122.19 25.04 122.19 26.24L122.16 26.25ZM120.12 25.7C120.14 25.07 120 24.52 119.72 24.06C119.34 23.46 118.77 23.16 118.02 23.16C117.32 23.16 116.75 23.46 116.32 24.04C115.96 24.5 115.75 25.04 115.68 25.7H120.12ZM49.05 9.99997C49.05 11.2 48.7 12.07 47.99 12.67C47.33 13.22 46.39 13.49 45.19 13.49C44.59 13.49 44.09 13.45 43.67 13.39V6.99997C44.22 6.89997 44.82 6.86997 45.47 6.86997C46.62 6.86997 47.47 7.11997 48.07 7.60997C48.71 8.16997 49.04 8.96997 49.04 10.01L49.05 9.99997ZM47.95 10.04C47.95 9.27997 47.75 8.68997 47.35 8.27997C46.93 7.87997 46.35 7.67997 45.57 7.67997C45.24 7.67997 44.97 7.67997 44.72 7.73997V12.64C44.85 12.64 45.09 12.66 45.42 12.66C46.22 12.66 46.85 12.43 47.29 11.99C47.71 11.53 47.93 10.89 47.93 10.03L47.95 10.04ZM54.9 11.04C54.9 11.76 54.7 12.36 54.3 12.82C53.85 13.3 53.28 13.54 52.56 13.54C51.86 13.54 51.32 13.31 50.91 12.84C50.51 12.39 50.31 11.81 50.31 11.11C50.31 10.39 50.51 9.80997 50.94 9.32997C51.36 8.86997 51.94 8.62997 52.64 8.62997C53.34 8.62997 53.9 8.85997 54.32 9.32997C54.72 9.76997 54.92 10.33 54.92 11.05L54.9 11.04ZM53.82 11.07C53.82 10.64 53.72 10.27 53.54 9.94997C53.32 9.57997 53.01 9.38997 52.6 9.38997C52.18 9.38997 51.86 9.56997 51.64 9.93997C51.44 10.24 51.36 10.64 51.36 11.08C51.36 11.5 51.46 11.88 51.64 12.18C51.87 12.56 52.18 12.75 52.59 12.75C52.99 12.75 53.29 12.55 53.52 12.18C53.72 11.86 53.82 11.48 53.82 11.05V11.07ZM62.77 8.71997L61.29 13.42H60.32L59.72 11.39C59.55 10.86 59.42 10.36 59.32 9.84997C59.22 10.37 59.09 10.88 58.92 11.38L58.28 13.41H57.3L55.92 8.70997H57L57.54 10.94C57.67 11.47 57.78 11.97 57.87 12.44C57.97 12.06 58.09 11.56 58.27 10.94L58.94 8.69997H59.8L60.44 10.9C60.59 11.44 60.72 11.96 60.82 12.45H60.84C60.91 11.97 61.02 11.45 61.16 10.9L61.74 8.69997H62.76L62.77 8.71997ZM68.2 13.43H67.15V10.73C67.15 9.89997 66.83 9.48997 66.2 9.48997C65.9 9.48997 65.64 9.58997 65.44 9.81997C65.24 10.05 65.14 10.32 65.14 10.62V13.42H64.1V10.06C64.1 9.63997 64.1 9.18997 64.07 8.70997H65L65.04 9.43997H65.07C65.19 9.21997 65.37 9.03997 65.61 8.87997C65.91 8.67997 66.21 8.59997 66.57 8.59997C67.01 8.59997 67.37 8.73997 67.67 9.02997C68.03 9.37997 68.21 9.89997 68.21 10.59V13.42L68.2 13.43ZM71.1 13.43H70.04V6.55997H71.09L71.1 13.43ZM77.26 11.04C77.26 11.76 77.06 12.36 76.64 12.82C76.2 13.3 75.64 13.54 74.91 13.54C74.23 13.54 73.68 13.31 73.27 12.84C72.87 12.39 72.65 11.81 72.65 11.11C72.65 10.39 72.85 9.80997 73.29 9.32997C73.71 8.86997 74.29 8.62997 74.99 8.62997C75.69 8.62997 76.24 8.85997 76.67 9.32997C77.07 9.76997 77.27 10.33 77.27 11.05L77.26 11.04ZM76.16 11.07C76.16 10.64 76.08 10.27 75.89 9.94997C75.66 9.57997 75.35 9.38997 74.94 9.38997C74.52 9.38997 74.2 9.56997 73.98 9.93997C73.78 10.24 73.68 10.64 73.68 11.08C73.68 11.5 73.78 11.88 73.98 12.18C74.2 12.56 74.51 12.75 74.92 12.75C75.32 12.75 75.62 12.55 75.86 12.18C76.06 11.86 76.16 11.48 76.16 11.05V11.07ZM82.33 13.43H81.39L81.29 12.89H81.27C80.95 13.31 80.49 13.53 79.9 13.53C79.46 13.53 79.1 13.39 78.83 13.1C78.58 12.86 78.46 12.53 78.46 12.15C78.46 11.58 78.7 11.15 79.18 10.83C79.66 10.53 80.34 10.38 81.22 10.39V10.29C81.22 9.66997 80.89 9.35997 80.24 9.35997C79.77 9.35997 79.36 9.47997 79.01 9.70997L78.81 9.00997C79.24 8.74997 79.78 8.60997 80.41 8.60997C81.65 8.60997 82.27 9.25997 82.27 10.56V12.3C82.27 12.78 82.29 13.16 82.34 13.43H82.33ZM81.23 11.81V11.11C80.09 11.08 79.51 11.39 79.51 12.05C79.51 12.29 79.58 12.48 79.71 12.6C79.85 12.7 80.03 12.77 80.23 12.77C80.46 12.77 80.68 12.7 80.87 12.55C81.07 12.41 81.19 12.22 81.24 12V11.8L81.23 11.81ZM88.28 13.43H87.35L87.31 12.68H87.29C86.99 13.25 86.49 13.54 85.77 13.54C85.2 13.54 84.73 13.32 84.37 12.87C83.97 12.42 83.79 11.85 83.79 11.13C83.79 10.37 83.99 9.74997 84.41 9.27997C84.81 8.83997 85.28 8.61997 85.86 8.61997C86.49 8.61997 86.94 8.81997 87.19 9.25997H87.21V6.55997H88.26V12.16C88.26 12.62 88.26 13.04 88.29 13.43H88.28ZM87.2 11.45V10.65C87.2 10.52 87.2 10.41 87.17 10.33C87.11 10.08 86.97 9.85997 86.79 9.68997C86.59 9.50997 86.35 9.42997 86.09 9.42997C85.69 9.42997 85.39 9.57997 85.16 9.88997C84.94 10.19 84.82 10.59 84.82 11.09C84.82 11.55 84.92 11.93 85.14 12.22C85.37 12.52 85.68 12.69 86.06 12.69C86.2203 12.6947 86.3794 12.6609 86.5238 12.5913C86.6683 12.5216 86.7939 12.4183 86.89 12.29C87.09 12.06 87.19 11.77 87.19 11.43L87.2 11.45ZM97.25 11.04C97.25 11.76 97.05 12.36 96.63 12.82C96.19 13.3 95.63 13.54 94.9 13.54C94.2 13.54 93.66 13.31 93.25 12.84C92.85 12.39 92.63 11.81 92.63 11.11C92.63 10.39 92.83 9.80997 93.27 9.32997C93.69 8.86997 94.27 8.62997 94.97 8.62997C95.67 8.62997 96.23 8.85997 96.65 9.32997C97.05 9.76997 97.25 10.33 97.25 11.05V11.04ZM96.15 11.07C96.15 10.64 96.07 10.27 95.88 9.94997C95.66 9.57997 95.35 9.38997 94.94 9.38997C94.52 9.38997 94.2 9.56997 93.98 9.93997C93.78 10.24 93.7 10.64 93.7 11.08C93.7 11.5 93.8 11.88 93.98 12.18C94.21 12.56 94.52 12.75 94.93 12.75C95.33 12.75 95.65 12.55 95.87 12.18C96.07 11.86 96.17 11.48 96.17 11.05L96.15 11.07ZM102.88 13.43H101.84V10.73C101.84 9.89997 101.52 9.48997 100.89 9.48997C100.56 9.48997 100.31 9.58997 100.12 9.81997C99.92 10.05 99.82 10.32 99.82 10.62V13.42H98.8V10.06C98.8 9.63997 98.78 9.18997 98.75 8.70997H99.67L99.72 9.43997H99.75C99.87 9.21997 100.05 9.03997 100.29 8.87997C100.57 8.67997 100.89 8.59997 101.23 8.59997C101.67 8.59997 102.03 8.73997 102.33 9.02997C102.69 9.37997 102.87 9.89997 102.87 10.59V13.42L102.88 13.43ZM109.94 9.49997H108.78V11.8C108.78 12.38 108.98 12.67 109.38 12.67C109.58 12.67 109.74 12.65 109.86 12.62L109.89 13.42C109.67 13.49 109.39 13.52 109.06 13.52C108.66 13.52 108.33 13.4 108.09 13.15C107.86 12.9 107.74 12.48 107.74 11.88V9.49997H107.04L107.06 8.71997H107.74V7.84997L108.77 7.54997V8.69997H109.93V9.47997L109.94 9.49997ZM115.48 13.43H114.43V10.75C114.43 9.90997 114.13 9.47997 113.49 9.47997C112.99 9.47997 112.66 9.72997 112.49 10.22C112.44 10.32 112.43 10.45 112.43 10.6V13.43H111.38V6.55997H112.42V9.39997H112.44C112.77 8.87997 113.24 8.61997 113.84 8.61997C114.29 8.61997 114.64 8.75997 114.94 9.04997C115.29 9.39997 115.46 9.92997 115.46 10.63V13.43H115.48ZM121.2 10.85C121.2 11.05 121.2 11.2 121.17 11.33H118.03C118.03 11.79 118.19 12.15 118.48 12.39C118.75 12.59 119.08 12.71 119.51 12.71C119.98 12.71 120.41 12.64 120.79 12.49L120.95 13.22C120.51 13.42 119.98 13.52 119.37 13.52C118.64 13.52 118.07 13.3 117.65 12.87C117.23 12.44 117.03 11.87 117.03 11.13C117.03 10.43 117.23 9.82997 117.61 9.35997C118.01 8.85997 118.56 8.59997 119.26 8.59997C119.93 8.59997 120.46 8.86997 120.8 9.36997C121.07 9.76997 121.2 10.27 121.2 10.85ZM120.2 10.58C120.22 10.28 120.15 9.99997 120 9.77997C119.82 9.47997 119.55 9.33997 119.17 9.33997C118.83 9.33997 118.55 9.47997 118.34 9.76997C118.16 9.98997 118.06 10.27 118.04 10.57H120.21L120.2 10.58Z" fill="white"/>
<path d="M130.2 39C132.27 39 134 37.3 134 35.27V4.73C134 2.7 132.27 1 130.2 1H4.73C4.24017 1 3.75514 1.09648 3.30259 1.28393C2.85005 1.47138 2.43885 1.74613 2.09249 2.09249C1.39298 2.792 1 3.74074 1 4.73V35.27C1 37.32 2.68 39 4.73 39H130.2ZM130.2 40H4.73C2.13 40 0 37.87 0 35.27V4.73C0 2.13 2.12 0 4.73 0H130.2C132.8 0 135 2.12 135 4.73V35.27C135 37.87 132.8 40 130.2 40Z" fill="#A6A6A6"/>
</g>
</g>
<defs>
<clipPath id="clip0_4025_116">
<rect width="135" height="40" fill="white"/>
</clipPath>
<clipPath id="clip1_4025_116">
<rect width="270" height="40" fill="white"/>
</clipPath>
</defs>
</svg>
