<svg width="360" height="3586" viewBox="0 0 360 3586" fill="none" xmlns="http://www.w3.org/2000/svg">
<path opacity="0.0294118" d="M-319.279 623.951C-319.279 623.951 -329.787 459.581 -274.564 291.292C-219.341 123.004 -103.597 439.398 92.7001 448.782C288.997 458.166 36.6471 284.325 134.257 126.067C231.866 -32.1912 538.268 247.508 538.268 247.508" stroke="#A6D058"/>
<path opacity="0.0588235" d="M-330.026 618.269C-330.026 618.269 -337.026 453.774 -278.22 286.3C-219.414 118.825 -110.439 436.823 85.6276 449.008C281.694 461.192 33.0923 283.775 134.064 126.935C235.036 -29.9059 535.422 254.125 535.422 254.125" stroke="#A6D058"/>
<path opacity="0.0882353" d="M-340.671 612.495C-340.671 612.495 -344.16 447.926 -281.789 281.316C-219.418 114.706 -117.246 434.212 78.5314 449.193C274.308 464.174 29.53 283.236 133.833 127.86C238.136 -27.5151 532.416 260.76 532.416 260.76" stroke="#A6D058"/>
<path opacity="0.117647" d="M-351.21 606.631C-351.21 606.631 -351.186 442.036 -285.27 276.342C-219.354 110.648 -124.014 431.564 71.4131 449.337C266.841 467.11 25.9604 282.705 133.563 128.843C241.166 -25.0204 529.25 267.411 529.25 267.411" stroke="#A6D058"/>
<path opacity="0.147059" d="M-361.642 600.677C-361.642 600.677 -358.106 436.108 -288.664 271.38C-219.222 106.652 -130.745 428.879 64.2733 449.44C259.292 470 22.3832 282.185 133.253 129.881C244.122 -22.4224 525.922 274.077 525.922 274.077" stroke="#A6D058"/>
<path opacity="0.176471" d="M-371.964 594.636C-371.964 594.636 -364.917 430.142 -291.971 266.431C-219.024 102.719 -137.437 426.16 57.1135 449.501C251.664 472.842 18.7987 281.674 132.901 130.976C247.004 -19.722 522.434 280.755 522.434 280.755" stroke="#A6D058"/>
<path opacity="0.205882" d="M-382.174 588.508C-382.174 588.508 -371.618 424.14 -295.189 261.495C-218.76 98.8496 -144.087 423.406 49.9353 449.52C243.958 475.635 15.2076 281.171 132.508 132.125C249.809 -16.9208 518.786 287.442 518.786 287.442" stroke="#A6D058"/>
<path opacity="0.235294" d="M-392.272 582.296C-392.272 582.296 -378.211 418.104 -298.323 256.574C-218.435 95.0448 -150.699 420.618 42.7367 449.497C236.172 478.377 11.6066 280.679 132.07 133.329C252.533 -14.0196 514.974 294.136 514.974 294.136" stroke="#A6D058"/>
<path opacity="0.264706" d="M-402.254 576.002C-402.254 576.002 -384.691 412.035 -301.369 251.67C-218.046 91.3057 -157.268 417.796 35.5222 449.432C228.312 481.069 7.99915 280.195 131.588 134.588C255.178 -11.0194 511.003 300.835 511.003 300.835" stroke="#A6D058"/>
<path opacity="0.294118" d="M-412.12 569.626C-412.12 569.626 -391.061 405.935 -304.329 246.784C-217.598 87.633 -163.795 414.941 28.2906 449.325C220.376 483.708 4.38302 279.72 131.06 135.899C257.738 -7.92169 506.87 307.537 506.87 307.537" stroke="#A6D058"/>
<path opacity="0.323529" d="M-421.868 563.17C-421.868 563.17 -397.319 399.805 -307.204 241.916C-217.09 84.0276 -170.279 412.054 21.043 449.174C212.365 486.294 0.758177 279.254 130.485 137.263C260.212 -4.72761 502.575 314.239 502.575 314.239" stroke="#A6D058"/>
<path opacity="0.352941" d="M-431.495 556.637C-431.495 556.637 -403.463 393.647 -309.994 237.069C-216.524 80.4905 -176.72 409.135 13.7812 448.98C204.282 488.826 -2.87473 278.797 129.862 138.679C262.6 -1.43819 498.119 320.939 498.119 320.939" stroke="#A6D058"/>
<path opacity="0.382353" d="M-441.001 550.028C-441.001 550.028 -409.496 387.463 -312.699 232.243C-215.903 77.0223 -183.118 406.185 6.50416 448.743C196.126 491.302 -6.51774 278.348 129.189 140.146C264.896 1.94513 493.5 327.636 493.5 327.636" stroke="#A6D058"/>
<path opacity="0.411765" d="M-450.382 543.344C-450.382 543.344 -415.413 381.254 -315.319 227.439C-215.225 73.6236 -189.469 403.204 -0.78405 448.463C187.901 493.722 -10.168 277.907 128.467 141.664C267.102 5.42085 488.722 334.325 488.722 334.325" stroke="#A6D058"/>
<path opacity="0.441176" d="M-459.64 536.588C-459.64 536.588 -421.217 375.022 -317.856 222.659C-214.495 70.2958 -195.776 400.194 -8.08533 448.139C179.605 496.084 -13.8284 277.475 127.693 143.232C269.214 8.98821 483.782 341.005 483.782 341.005" stroke="#A6D058"/>
<path opacity="0.470588" d="M-468.771 529.761C-468.771 529.761 -426.906 368.768 -320.31 217.903C-213.713 67.0391 -202.036 397.154 -15.3975 447.771C171.241 498.388 -17.498 277.051 126.866 144.848C271.231 12.6453 478.681 347.675 478.681 347.675" stroke="#A6D058"/>
<path opacity="0.5" d="M-477.774 522.865C-477.774 522.865 -432.481 362.494 -322.681 213.174C-212.882 63.8544 -208.251 394.086 -22.7203 447.359C162.81 500.632 -21.1776 276.636 125.986 146.513C273.149 16.391 473.419 354.331 473.419 354.331" stroke="#A6D058"/>
<path opacity="0.529412" d="M-486.647 515.903C-486.647 515.903 -437.939 356.202 -324.97 208.472C-212 60.7426 -214.417 390.989 -30.0516 446.903C154.314 502.817 -24.8662 276.228 125.051 148.226C274.969 20.2241 467.997 360.971 467.997 360.971" stroke="#A6D058"/>
<path opacity="0.558824" d="M-495.389 508.874C-495.389 508.874 -443.281 349.893 -327.176 203.799C-211.072 57.704 -220.535 387.866 -37.391 446.403C145.753 504.939 -28.5644 275.827 124.062 149.985C276.688 24.1426 462.416 367.593 462.416 367.593" stroke="#A6D058"/>
<path opacity="0.588235" d="M-504.001 501.783C-504.001 501.783 -448.507 343.57 -329.304 199.155C-210.1 54.7396 -226.606 384.716 -44.7391 445.858C137.128 507 -32.2741 275.435 123.014 151.79C278.302 28.1456 456.673 374.194 456.673 374.194" stroke="#A6D058"/>
<path opacity="0.617647" d="M-512.478 494.63C-512.478 494.63 -453.617 337.233 -331.349 194.541C-209.082 51.8498 -232.627 381.541 -52.0927 445.269C128.442 508.998 -35.9929 275.05 121.91 153.641C279.813 32.2314 450.772 380.774 450.772 380.774" stroke="#A6D058"/>
<path opacity="0.647059" d="M-520.82 487.417C-520.82 487.417 -458.61 330.885 -333.316 189.96C-208.023 49.0353 -238.599 378.34 -59.4521 444.636C119.695 510.932 -39.7226 274.672 120.747 155.535C281.216 36.3984 444.712 387.328 444.712 387.328" stroke="#A6D058"/>
<path opacity="0.676471" d="M-529.026 480.147C-529.026 480.147 -463.484 324.526 -335.203 185.411C-206.921 46.2967 -244.52 375.115 -66.8148 443.958C110.891 512.801 -43.4615 274.301 119.526 157.473C282.513 40.6451 438.496 393.855 438.496 393.855" stroke="#A6D058"/>
<path opacity="0.705882" d="M-537.095 472.821C-537.095 472.821 -468.243 318.16 -337.012 180.897C-205.782 43.6347 -250.392 371.866 -74.1823 443.235C102.027 514.604 -47.2124 273.938 118.243 159.454C283.698 44.9701 432.121 400.353 432.121 400.353" stroke="#A6D058"/>
<path opacity="0.735294" d="M-545.025 465.441C-545.025 465.441 -472.884 311.786 -338.744 176.418C-204.605 41.0496 -256.212 368.594 -81.5521 442.467C93.1075 516.341 -50.9737 273.581 116.899 161.476C284.772 49.3717 425.589 406.819 425.589 406.819" stroke="#A6D058"/>
<path opacity="0.764706" d="M-552.816 458.01C-552.816 458.01 -477.407 305.408 -340.399 171.975C-203.391 38.5423 -261.98 365.3 -88.9232 441.655C84.1334 518.011 -54.7457 273.231 115.494 163.54C285.734 53.8486 418.901 413.251 418.901 413.251" stroke="#A6D058"/>
<path opacity="0.794118" d="M-560.467 450.529C-560.467 450.529 -481.812 299.027 -341.978 167.57C-202.144 36.1127 -267.696 361.985 -96.2953 440.798C75.1057 519.612 -58.529 272.888 114.025 165.643C286.58 58.3984 412.058 419.647 412.058 419.647" stroke="#A6D058"/>
<path opacity="0.823529" d="M-567.975 443.001C-567.975 443.001 -486.1 292.644 -343.482 163.203C-200.864 33.762 -273.359 358.648 -103.666 439.897C66.0268 521.145 -62.3229 272.551 112.494 167.786C287.31 63.0204 405.061 426.005 405.061 426.005" stroke="#A6D058"/>
<path opacity="0.852941" d="M-575.341 435.426C-575.341 435.426 -490.27 286.261 -344.912 158.876C-199.554 31.4899 -278.971 355.292 -111.037 438.95C56.8961 522.609 -66.1294 272.22 110.896 169.966C287.921 67.712 397.908 432.322 397.908 432.322" stroke="#A6D058"/>
<path opacity="0.882353" d="M-582.563 427.808C-582.563 427.808 -494.322 279.88 -346.268 154.589C-198.213 29.2975 -284.528 351.917 -118.405 437.959C47.7178 524.002 -69.946 271.896 109.234 172.184C288.415 72.4724 390.605 438.597 390.605 438.597" stroke="#A6D058"/>
<path opacity="0.911765" d="M-589.642 420.148C-589.642 420.148 -498.257 273.503 -347.552 150.344C-196.847 27.1848 -290.032 348.523 -125.771 436.924C38.4905 525.324 -73.7758 271.577 107.505 174.438C288.786 77.2992 383.148 444.827 383.148 444.827" stroke="#A6D058"/>
<path opacity="0.941176" d="M-596.574 412.449C-596.574 412.449 -502.075 267.13 -348.765 146.141C-195.454 25.1523 -295.483 345.111 -133.132 435.843C29.2178 526.575 -77.6169 271.264 105.709 176.727C289.035 82.1911 375.54 451.009 375.54 451.009" stroke="#A6D058"/>
<path opacity="0.970588" d="M-603.36 404.713C-603.36 404.713 -505.775 260.765 -349.906 141.983C-194.037 23.2004 -300.878 341.683 -140.488 434.718C19.9011 527.754 -81.4694 270.956 103.846 179.051C289.161 87.1461 367.783 457.143 367.783 457.143" stroke="#A6D058"/>
<path d="M-610 396.941C-610 396.941 -509.357 254.408 -350.978 137.869C-192.598 21.3293 -306.218 338.238 -147.839 433.549C10.5411 528.86 -85.3342 270.654 101.914 181.408C289.162 92.1624 359.877 463.225 359.877 463.225" stroke="#A6D058"/>
<path opacity="0.0294118" d="M633.515 -150.46C633.515 -150.46 646.592 13.91 577.869 182.198C509.147 350.487 365.11 34.0925 120.829 24.7087C-123.452 15.3248 190.584 189.166 69.1138 347.424C-52.3561 505.682 -433.657 225.983 -433.657 225.983" stroke="#A6D058"/>
<path opacity="0.0588235" d="M646.892 -144.778C646.892 -144.778 655.602 19.7166 582.421 187.191C509.24 354.666 373.627 36.6674 129.632 24.483C-114.362 12.2987 195.01 189.716 69.3557 346.556C-56.2982 503.397 -430.113 219.366 -430.113 219.366" stroke="#A6D058"/>
<path opacity="0.0882353" d="M660.137 -139.004C660.137 -139.004 664.479 25.5653 586.862 192.175C509.244 358.785 382.096 39.2792 138.462 24.2981C-105.172 9.31686 199.442 190.255 69.6424 345.631C-60.1572 501.006 -426.373 212.731 -426.373 212.731" stroke="#A6D058"/>
<path opacity="0.117647" d="M673.253 -133.14C673.253 -133.14 673.223 31.4546 591.194 197.149C509.164 362.843 390.52 41.9274 147.321 24.154C-95.8783 6.3806 203.884 190.786 69.9784 344.648C-63.9273 498.511 -422.432 206.08 -422.432 206.08" stroke="#A6D058"/>
<path opacity="0.147059" d="M686.234 -127.186C686.234 -127.186 681.834 37.3829 595.417 202.111C509 366.839 398.895 44.6115 156.205 24.0512C-86.4848 3.49093 208.335 191.306 70.3641 343.61C-67.6071 495.913 -418.292 199.414 -418.292 199.414" stroke="#A6D058"/>
<path opacity="0.176471" d="M699.08 -121.145C699.08 -121.145 690.31 43.3487 599.532 207.06C508.754 370.772 407.223 47.3309 165.116 23.99C-76.9915 0.64921 212.796 191.818 70.8018 342.515C-71.1927 493.213 -413.951 192.737 -413.951 192.737" stroke="#A6D058"/>
<path opacity="0.205882" d="M711.786 -115.017C711.786 -115.017 698.649 49.3507 603.538 211.996C508.426 374.642 415.499 50.0851 174.049 23.9708C-67.4017 -2.14348 217.266 192.32 71.2909 341.366C-74.6836 490.412 -409.411 186.05 -409.411 186.05" stroke="#A6D058"/>
<path opacity="0.235294" d="M724.352 -108.805C724.352 -108.805 706.853 55.387 607.437 216.917C508.021 378.446 423.726 52.8736 183.006 23.9938C-57.7141 -4.88604 221.746 192.813 71.8357 340.162C-78.0745 487.511 -404.668 179.355 -404.668 179.355" stroke="#A6D058"/>
<path opacity="0.264706" d="M736.774 -102.511C736.774 -102.511 714.917 61.4557 611.227 221.821C507.537 382.185 431.901 55.6951 191.984 24.0586C-47.9325 -7.5779 226.235 193.296 72.4349 338.903C-81.3652 484.51 -399.726 172.656 -399.726 172.656" stroke="#A6D058"/>
<path opacity="0.294118" d="M749.052 -96.1347C749.052 -96.1347 722.845 67.5559 614.912 226.707C506.979 385.858 440.025 58.5499 200.985 24.1663C-38.0554 -10.2173 230.736 193.771 73.093 337.592C-84.5502 481.413 -394.582 165.954 -394.582 165.954" stroke="#A6D058"/>
<path opacity="0.323529" d="M761.182 -89.6792C761.182 -89.6792 730.632 73.6859 618.489 231.575C506.347 389.463 448.094 61.4373 210.003 24.3171C-28.0873 -12.8031 235.247 194.237 73.8082 336.228C-87.6302 478.219 -389.238 159.252 -389.238 159.252" stroke="#A6D058"/>
<path opacity="0.352941" d="M773.163 -83.1461C773.163 -83.1461 738.28 79.8437 621.962 236.422C505.643 393.001 456.11 64.3562 219.041 24.5107C-18.0272 -15.3347 239.769 194.694 74.5845 334.812C-90.5998 474.929 -383.691 152.552 -383.691 152.552" stroke="#A6D058"/>
<path opacity="0.382353" d="M784.992 -76.5369C784.992 -76.5369 745.786 86.0279 625.327 241.248C504.869 396.469 464.07 67.3063 228.096 24.7476C-7.87883 -17.811 244.301 195.143 75.4207 333.344C-93.4592 471.546 -377.945 145.855 -377.945 145.855" stroke="#A6D058"/>
<path opacity="0.411765" d="M796.667 -69.8531C796.667 -69.8531 753.15 92.2372 628.588 246.052C504.026 399.867 471.975 70.2871 237.166 25.0283C2.35788 -20.2305 248.844 195.584 76.3199 331.827C-96.2041 468.07 -371.998 139.166 -371.998 139.166" stroke="#A6D058"/>
<path opacity="0.441176" d="M808.187 -63.0968C808.187 -63.0968 760.372 98.4697 631.745 250.833C503.117 403.195 479.822 73.2977 246.251 25.3525C12.6807 -22.5927 253.398 196.016 77.2827 330.259C-98.8329 464.503 -365.851 132.486 -365.851 132.486" stroke="#A6D058"/>
<path opacity="0.470588" d="M819.55 -56.2701C819.55 -56.2701 767.452 104.723 634.798 255.588C502.145 406.452 487.613 76.3373 255.351 25.7203C23.0894 -24.8967 257.965 196.44 78.3118 328.643C-101.342 460.846 -359.503 125.816 -359.503 125.816" stroke="#A6D058"/>
<path opacity="0.5" d="M830.753 -49.3744C830.753 -49.3744 774.388 110.997 637.748 260.317C501.108 409.637 495.345 79.4055 264.463 26.132C33.5802 -27.1414 262.543 196.855 79.4061 326.978C-103.731 457.1 -352.956 119.16 -352.956 119.16" stroke="#A6D058"/>
<path opacity="0.529412" d="M841.796 -42.4115C841.796 -42.4115 781.181 117.289 640.597 265.019C500.013 412.748 503.02 82.5015 273.587 26.588C44.1543 -29.3256 267.134 197.263 80.5697 325.265C-105.995 453.267 -346.208 112.52 -346.208 112.52" stroke="#A6D058"/>
<path opacity="0.558824" d="M852.676 -35.3831C852.676 -35.3831 787.829 123.598 643.344 269.692C498.858 415.787 510.635 85.625 282.722 27.0884C54.8085 -31.4483 271.737 197.664 81.8023 323.506C-108.133 449.348 -339.261 105.898 -339.261 105.898" stroke="#A6D058"/>
<path opacity="0.588235" d="M863.392 -28.2916C863.392 -28.2916 794.334 129.921 645.991 274.336C497.648 418.752 518.189 88.7748 291.866 27.6328C65.5417 -33.5092 276.353 198.056 83.1058 321.701C-110.142 445.345 -332.115 99.2966 -332.115 99.2966" stroke="#A6D058"/>
<path opacity="0.617647" d="M873.94 -21.1387C873.94 -21.1387 800.691 136.258 648.535 278.95C496.38 421.641 525.681 91.9504 301.015 28.2218C76.3494 -35.5069 280.98 198.441 84.4783 319.851C-112.023 441.26 -324.773 92.7175 -324.773 92.7175" stroke="#A6D058"/>
<path opacity="0.647059" d="M884.322 -13.9263C884.322 -13.9263 806.904 142.606 650.983 283.531C495.062 424.456 533.113 95.151 310.174 28.8551C87.2346 -37.4408 285.622 198.819 85.9258 317.956C-113.77 437.092 -317.232 86.163 -317.232 86.163" stroke="#A6D058"/>
<path opacity="0.676471" d="M894.534 -6.65598C894.534 -6.65598 812.972 148.965 653.332 288.079C493.692 427.194 540.482 98.3762 319.337 29.5333C98.1925 -39.3096 290.275 199.19 87.4465 316.018C-115.382 432.846 -309.495 79.6361 -309.495 79.6361" stroke="#A6D058"/>
<path opacity="0.705882" d="M904.575 0.670071C904.575 0.670071 818.893 155.331 655.583 292.594C492.274 429.856 547.788 101.625 328.505 30.2562C109.222 -41.1128 294.942 199.553 89.0421 314.037C-116.858 428.521 -301.562 73.1385 -301.562 73.1385" stroke="#A6D058"/>
<path opacity="0.735294" d="M914.445 8.04976C914.445 8.04976 824.668 161.705 657.739 297.073C490.809 432.442 555.031 104.897 337.677 31.0238C120.322 -42.8496 299.624 199.91 90.7146 312.015C-118.194 424.119 -293.433 66.6726 -293.433 66.6726" stroke="#A6D058"/>
<path opacity="0.764706" d="M924.141 15.4808C924.141 15.4808 830.298 168.083 659.799 301.516C489.3 434.949 562.21 108.191 346.851 31.8356C131.491 -44.5196 304.318 200.26 92.4643 309.951C-119.39 419.643 -285.11 60.24 -285.11 60.24" stroke="#A6D058"/>
<path opacity="0.794118" d="M933.662 22.962C933.662 22.962 835.781 174.464 661.765 305.921C487.749 437.378 569.325 111.507 356.025 32.6927C142.726 -46.1211 309.027 200.603 94.2926 307.848C-120.442 415.093 -276.593 53.8441 -276.593 53.8441" stroke="#A6D058"/>
<path opacity="0.823529" d="M943.005 30.4907C943.005 30.4907 841.116 180.847 663.636 310.288C486.155 439.729 576.372 114.843 365.198 33.5943C154.024 -47.6541 313.749 200.94 96.199 305.706C-121.351 410.471 -267.885 47.4862 -267.885 47.4862" stroke="#A6D058"/>
<path opacity="0.852941" d="M952.171 38.0651C952.171 38.0651 846.305 187.23 665.414 314.616C484.524 442.001 583.354 118.199 374.37 34.5407C165.386 -49.1175 318.484 201.271 98.1857 303.525C-122.113 405.779 -258.986 41.1689 -258.986 41.1689" stroke="#A6D058"/>
<path opacity="0.882353" d="M961.16 45.6831C961.16 45.6831 851.349 193.611 667.104 318.902C482.858 444.194 590.272 121.574 383.541 35.5318C176.81 -50.5108 323.236 201.596 100.256 301.307C-122.725 401.019 -249.895 34.8943 -249.895 34.8943" stroke="#A6D058"/>
<path opacity="0.911765" d="M969.968 53.3427C969.968 53.3427 856.246 199.988 668.701 323.147C481.156 446.306 597.121 124.968 392.706 36.5675C188.291 -51.8333 328.001 201.914 102.407 299.053C-123.188 396.192 -240.616 28.6644 -240.616 28.6644" stroke="#A6D058"/>
<path opacity="0.941176" d="M978.595 61.0418C978.595 61.0418 860.996 206.361 670.209 327.35C479.423 448.339 603.903 128.38 401.867 37.6479C199.831 -53.0841 332.781 202.227 104.641 296.764C-123.498 391.3 -231.149 22.4817 -231.149 22.4817" stroke="#A6D058"/>
<path opacity="0.970588" d="M987.041 68.7783C987.041 68.7783 865.6 212.726 671.63 331.509C477.66 450.291 610.617 131.808 411.021 38.7728C211.425 -54.2628 337.575 202.535 106.96 294.44C-123.655 386.345 -221.496 16.3481 -221.496 16.3481" stroke="#A6D058"/>
<path d="M995.303 76.5502C995.303 76.5502 870.058 219.083 672.963 335.623C475.868 452.162 617.263 135.253 420.168 39.9422C223.073 -55.3686 342.384 202.837 109.364 292.083C-123.657 381.329 -211.657 10.2658 -211.657 10.2658" stroke="#A6D058"/>
<path opacity="0.0294118" d="M482.988 2881.34C482.988 2881.34 281.597 2904.45 78.1755 2768.38C-125.246 2632.3 266.419 2356.59 286.132 1881.51C305.844 1406.43 82.7218 2014.88 -106.658 1776.33C-296.038 1537.79 58.7705 799.995 58.7705 799.995" stroke="#A6D058"/>
<path opacity="0.0588235" d="M475.592 2907.28C475.592 2907.28 274.196 2921.9 71.9194 2777.16C-130.357 2632.42 262.985 2373.12 286.112 1898.64C309.239 1424.16 81.9021 2023.48 -105.604 1776.81C-293.109 1530.15 66.7409 806.981 66.7409 806.981" stroke="#A6D058"/>
<path opacity="0.0882353" d="M468.086 2932.97C468.086 2932.97 266.746 2939.08 65.6766 2785.73C-135.393 2632.37 259.506 2389.56 286.04 1915.82C312.574 1442.08 81.0926 2032.09 -104.482 1777.38C-290.057 1522.68 74.7263 814.351 74.7263 814.351" stroke="#A6D058"/>
<path opacity="0.117647" d="M460.475 2958.4C460.475 2958.4 259.252 2956.01 59.4505 2794.08C-140.351 2632.16 255.985 2405.91 285.918 1933.05C315.851 1460.2 80.2952 2040.73 -103.292 1778.05C-286.879 1515.38 82.7257 822.112 82.7257 822.112" stroke="#A6D058"/>
<path opacity="0.147059" d="M452.757 2983.57C452.757 2983.57 251.713 2972.67 53.2409 2802.23C-145.231 2631.78 252.42 2422.16 285.743 1950.34C319.066 1478.52 79.5079 2049.38 -102.036 1778.82C-283.579 1508.26 90.7346 830.261 90.7346 830.261" stroke="#A6D058"/>
<path opacity="0.176471" d="M444.937 3008.47C444.937 3008.47 244.133 2989.08 47.0503 2810.16C-150.032 2631.25 248.814 2438.32 285.517 1967.67C322.219 1497.02 78.7316 2058.05 -100.713 1779.68C-280.158 1501.32 98.7508 838.8 98.7508 838.8" stroke="#A6D058"/>
<path opacity="0.205882" d="M437.018 3033.1C437.018 3033.1 236.514 3005.22 40.8815 2817.89C-154.751 2630.56 245.168 2454.38 285.239 1985.05C325.31 1515.72 77.9674 2066.74 -99.3238 1780.65C-276.615 1494.57 106.773 847.728 106.773 847.728" stroke="#A6D058"/>
<path opacity="0.235294" d="M428.999 3057.46C428.999 3057.46 228.857 3021.09 34.734 2825.4C-159.39 2629.71 241.481 2470.35 284.909 2002.48C328.336 1534.6 77.2132 2075.44 -97.8705 1781.73C-272.954 1488.01 114.797 857.047 114.797 857.047" stroke="#A6D058"/>
<path opacity="0.264706" d="M420.886 3081.54C420.886 3081.54 221.167 3036.69 28.6123 2832.71C-163.943 2628.72 237.757 2486.21 284.528 2019.94C331.298 1553.67 76.472 2084.17 -96.3509 1782.91C-269.174 1481.65 122.822 866.756 122.822 866.756" stroke="#A6D058"/>
<path opacity="0.294118" d="M412.676 3105.33C412.676 3105.33 213.441 3052.03 22.5132 2839.8C-168.415 2627.58 233.992 2501.97 284.092 2037.45C334.191 1572.92 75.7387 2092.92 -94.7707 1784.21C-265.28 1475.5 130.841 876.858 130.841 876.858" stroke="#A6D058"/>
<path opacity="0.323529" d="M404.376 3128.83C404.376 3128.83 205.685 3067.09 16.4421 2846.69C-172.801 2626.3 230.191 2517.63 283.604 2054.99C337.017 1592.35 75.0172 2101.69 -93.1268 1785.62C-261.271 1469.55 138.855 887.349 138.855 887.349" stroke="#A6D058"/>
<path opacity="0.352941" d="M395.984 3152.05C395.984 3152.05 197.899 3081.88 10.3988 2853.38C-177.101 2624.88 226.352 2533.18 283.062 2072.57C339.772 1611.96 74.3057 2110.48 -91.4216 1787.15C-257.149 1463.83 146.859 898.235 146.859 898.235" stroke="#A6D058"/>
<path opacity="0.382353" d="M387.504 3174.97C387.504 3174.97 190.084 3096.39 4.38382 2859.86C-181.316 2623.33 222.476 2548.63 282.466 2090.18C342.456 1631.73 73.603 2119.29 -89.6573 1788.8C-252.918 1458.31 154.85 909.508 154.85 909.508" stroke="#A6D058"/>
<path opacity="0.411765" d="M378.94 3197.59C378.94 3197.59 182.245 3110.63 -1.5984 2866.14C-185.442 2621.64 218.566 2563.96 281.818 2107.82C345.07 1651.68 72.912 2128.12 -87.8314 1790.57C-248.575 1453.02 162.828 921.172 162.828 921.172" stroke="#A6D058"/>
<path opacity="0.441176" d="M370.291 3219.9C370.291 3219.9 174.382 3124.59 -7.54917 2872.21C-189.48 2619.82 214.62 2579.18 281.114 2125.49C347.609 1671.8 72.2297 2136.97 -85.9479 1792.47C-244.125 1447.96 170.788 933.224 170.788 933.224" stroke="#A6D058"/>
<path opacity="0.470588" d="M361.563 3241.91C361.563 3241.91 166.498 3138.28 -13.4649 2878.08C-193.428 2617.89 210.642 2594.3 280.359 2143.19C350.075 1692.08 71.5583 2145.85 -84.0054 1794.49C-239.569 1443.13 178.728 945.669 178.728 945.669" stroke="#A6D058"/>
<path opacity="0.5" d="M352.753 3263.6C352.753 3263.6 158.593 3151.68 -19.3471 2883.75C-197.288 2615.83 206.629 2609.3 279.547 2160.91C352.464 1712.52 70.8944 2154.75 -82.0079 1796.64C-234.91 1438.54 186.643 958.502 186.643 958.502" stroke="#A6D058"/>
<path opacity="0.529412" d="M343.868 3284.99C343.868 3284.99 150.672 3164.81 -25.1913 2889.23C-201.055 2613.65 202.585 2624.18 278.682 2178.65C354.778 1733.12 70.2411 2163.68 -79.9532 1798.93C-230.148 1434.18 194.534 971.721 194.534 971.721" stroke="#A6D058"/>
<path opacity="0.558824" d="M334.909 3306.05C334.909 3306.05 142.735 3177.65 -30.9977 2894.5C-204.731 2611.36 198.51 2638.95 277.762 2196.41C357.014 1753.87 69.5964 2172.63 -77.8442 1801.35C-225.285 1430.08 202.395 985.328 202.395 985.328" stroke="#A6D058"/>
<path opacity="0.588235" d="M325.878 3326.8C325.878 3326.8 134.786 3190.21 -36.7639 2899.59C-208.314 2608.96 194.405 2653.6 276.788 2214.19C359.172 1774.78 68.9613 2181.6 -75.6807 1803.91C-220.323 1426.23 210.225 999.324 210.225 999.324" stroke="#A6D058"/>
<path opacity="0.617647" d="M316.778 3347.22C316.778 3347.22 126.825 3202.49 -42.4894 2904.47C-211.803 2606.46 190.27 2668.13 275.76 2231.99C361.25 1795.84 68.3348 2190.6 -73.4646 1806.61C-215.264 1422.63 218.021 1013.7 218.021 1013.7" stroke="#A6D058"/>
<path opacity="0.647059" d="M307.61 3367.31C307.61 3367.31 118.853 3214.49 -48.1735 2909.17C-215.2 2603.85 186.106 2682.54 274.676 2249.79C363.246 1817.04 67.7158 2199.62 -71.1976 1809.45C-210.111 1419.29 225.779 1028.46 225.779 1028.46" stroke="#A6D058"/>
<path opacity="0.676471" d="M298.378 3387.07C298.378 3387.07 110.876 3226.2 -53.8128 2913.67C-218.501 2601.15 181.915 2696.83 273.538 2267.61C365.162 1838.38 67.1064 2208.67 -68.8789 1812.44C-204.864 1416.21 233.499 1043.61 233.499 1043.61" stroke="#A6D058"/>
<path opacity="0.705882" d="M289.082 3406.5C289.082 3406.5 102.892 3237.63 -59.4086 2917.99C-221.709 2598.35 177.696 2711 272.345 2285.43C366.994 1859.87 66.5037 2217.74 -66.512 1815.57C-199.528 1413.4 241.174 1059.13 241.174 1059.13" stroke="#A6D058"/>
<path opacity="0.735294" d="M279.728 3425.6C279.728 3425.6 94.9062 3248.78 -64.9564 2922.12C-224.819 2595.47 173.452 2725.05 271.098 2303.27C368.744 1881.48 65.9104 2226.84 -64.0951 1818.86C-194.101 1410.87 248.805 1075.04 248.805 1075.04" stroke="#A6D058"/>
<path opacity="0.764706" d="M270.315 3444.35C270.315 3444.35 86.9185 3259.63 -70.4578 2926.06C-227.834 2592.49 169.183 2738.96 269.795 2321.1C370.408 1903.23 65.324 2235.97 -61.6319 1822.29C-188.588 1408.6 256.388 1091.32 256.388 1091.32" stroke="#A6D058"/>
<path opacity="0.794118" d="M260.847 3462.77C260.847 3462.77 78.9308 3270.21 -75.911 2929.83C-230.753 2589.44 164.888 2752.76 268.437 2338.93C371.986 1925.11 64.7441 2245.13 -59.1233 1825.87C-182.991 1406.62 263.919 1107.98 263.919 1107.98" stroke="#A6D058"/>
<path opacity="0.823529" d="M251.328 3480.84C251.328 3480.84 70.9476 3280.5 -81.3127 2933.4C-233.573 2586.31 160.572 2766.42 267.025 2356.77C373.479 1947.11 64.1731 2254.31 -56.5683 1829.61C-177.31 1404.92 271.398 1125.01 271.398 1125.01" stroke="#A6D058"/>
<path opacity="0.852941" d="M241.759 3498.56C241.759 3498.56 62.9692 3290.5 -86.6632 2936.8C-236.296 2583.1 156.233 2779.95 265.559 2374.59C374.885 1969.24 63.6089 2263.51 -53.9696 1833.51C-171.548 1403.5 278.821 1142.41 278.821 1142.41" stroke="#A6D058"/>
<path opacity="0.882353" d="M232.143 3515.94C232.143 3515.94 54.9988 3300.22 -91.96 2940.03C-238.919 2579.83 151.874 2793.36 264.039 2392.42C376.204 1991.48 63.0526 2272.75 -51.3272 1837.57C-165.707 1402.38 286.187 1160.18 286.187 1160.18" stroke="#A6D058"/>
<path opacity="0.911765" d="M222.482 3532.97C222.482 3532.97 47.037 3309.66 -97.2036 2943.07C-241.444 2576.49 147.494 2806.64 262.464 2410.24C377.433 2013.83 62.5023 2282.02 -48.6439 1841.78C-159.79 1401.55 293.49 1178.32 293.49 1178.32" stroke="#A6D058"/>
<path opacity="0.941176" d="M212.777 3549.64C212.777 3549.64 39.0852 3318.81 -102.393 2945.95C-243.872 2573.09 143.093 2819.78 260.833 2428.04C378.572 2036.3 61.9573 2291.31 -45.9215 1846.16C-153.8 1401.01 300.728 1196.83 300.728 1196.83" stroke="#A6D058"/>
<path opacity="0.970588" d="M203.035 3565.96C203.035 3565.96 31.1485 3327.68 -107.525 2948.65C-246.198 2569.63 138.676 2832.79 259.149 2445.83C379.623 2058.87 61.4206 2300.63 -43.1579 1850.71C-147.736 1400.78 307.902 1215.69 307.902 1215.69" stroke="#A6D058"/>
<path d="M193.254 3581.92C193.254 3581.92 23.2256 3336.26 -112.6 2951.19C-248.426 2566.12 134.24 2845.67 257.41 2463.61C380.581 2081.54 60.8883 2309.98 -40.3581 1855.41C-141.604 1400.85 315.005 1234.92 315.005 1234.92" stroke="#A6D058"/>
</svg>
