<svg width="135" height="48" viewBox="0 0 135 48" fill="none" xmlns="http://www.w3.org/2000/svg">
<g clip-path="url(#clip0_4025_134)">
<g clip-path="url(#clip1_4025_134)">
<path d="M130 0H5C2.23858 0 0 2.23858 0 5V35C0 37.7614 2.23858 40 5 40H130C132.761 40 135 37.7614 135 35V5C135 2.23858 132.761 0 130 0Z" fill="black"/>
<path d="M47.42 10.24C47.45 10.98 47.18 11.7 46.67 12.24C46.1 12.84 45.3 13.16 44.47 13.14C43.2 13.12 42.07 12.34 41.57 11.18C41.1 10.01 41.37 8.65998 42.27 7.75998C42.84 7.15998 43.64 6.83998 44.47 6.85998C44.89 6.85998 45.31 6.93998 45.7 7.10998C46.06 7.26998 46.38 7.50998 46.64 7.78998L46.11 8.31998C45.71 7.84998 45.11 7.58998 44.48 7.61998C43.85 7.61998 43.24 7.86998 42.8 8.31998C42.35 8.77998 42.12 9.38998 42.14 10.02C42.14 10.97 42.69 11.84 43.56 12.22C44.44 12.6 45.46 12.42 46.14 11.75C46.44 11.42 46.64 10.98 46.64 10.53H44.47V9.82998H47.37C47.41 9.96998 47.42 10.13 47.42 10.27V10.24ZM52 7.73998H49.3V9.63998H51.76V10.36H49.3V12.26H52V13H48.5V6.99998H52V7.73998ZM55.28 13H54.51V7.73998H52.84V6.99998H57V7.73998H55.28V13ZM59.94 13V6.99998H60.71V13H59.94ZM64.13 13H63.36V7.73998H61.68V6.99998H65.8V7.73998H64.13V13ZM73.6 12.22C72.4 13.42 70.43 13.42 69.2 12.22C68.6362 11.6162 68.3226 10.821 68.3226 9.99498C68.3226 9.16894 68.6362 8.3737 69.2 7.76998C69.8 7.16998 70.58 6.84998 71.4 6.84998C72.24 6.84998 73.03 7.17998 73.6 7.76998C74.1774 8.36676 74.5001 9.16461 74.5001 9.99498C74.5001 10.8253 74.1774 11.6232 73.6 12.22ZM69.78 11.72C70.68 12.62 72.14 12.62 73.04 11.72C73.94 10.74 73.94 9.25998 73.04 8.27998C72.14 7.37998 70.68 7.37998 69.78 8.27998C68.88 9.25998 68.88 10.74 69.78 11.72ZM75.58 13V6.99998H76.52L79.44 11.67V6.99998H80.21V13H79.41L76.37 8.09998V13H75.58Z" fill="white" stroke="white" stroke-width="0.2"/>
<path d="M68.14 21.75C65.8 21.75 63.9 23.67 63.91 26.01C63.9153 27.139 64.3675 28.22 65.1677 29.0164C65.9679 29.8129 67.051 30.26 68.18 30.26C70.52 30.26 72.42 28.36 72.42 26.01C72.45 24.87 72 23.78 71.2 22.98C70.4 22.18 69.3 21.74 68.16 21.76L68.14 21.75ZM68.14 28.58C67.08 28.65 66.09 28.08 65.64 27.12C65.18 26.16 65.34 25.02 66.07 24.25C66.79 23.47 67.91 23.22 68.9 23.6C69.9 24 70.54 24.94 70.54 26C70.57 26.66 70.34 27.3 69.88 27.8C69.43 28.28 68.8 28.56 68.14 28.58ZM58.84 21.75C56.48 21.75 54.59 23.65 54.59 26.01C54.59 27.1359 55.0372 28.2156 55.8333 29.0117C56.6294 29.8078 57.7091 30.255 58.835 30.255C59.9608 30.255 61.0406 29.8078 61.8367 29.0117C62.6328 28.2156 63.08 27.1359 63.08 26.01C63.08 24.87 62.64 23.78 61.84 22.98C61.04 22.18 59.94 21.74 58.8 21.76L58.84 21.75ZM58.84 28.58C57.77 28.66 56.78 28.08 56.32 27.13C55.86 26.17 56.02 25.03 56.75 24.25C57.1035 23.8724 57.5617 23.6089 58.0658 23.4931C58.5699 23.3773 59.0971 23.4146 59.58 23.6C60.58 24 61.22 24.94 61.22 26C61.25 26.66 61.02 27.3 60.56 27.8C60.11 28.28 59.48 28.56 58.82 28.58H58.84ZM47.74 23.06V24.86H52.06C51.99 25.71 51.64 26.51 51.06 27.13C50.19 28.03 48.98 28.5 47.73 28.45C46.4739 28.4244 45.2779 27.9074 44.3987 27.01C43.5194 26.1126 43.027 24.9063 43.027 23.65C43.027 22.3937 43.5194 21.1874 44.3987 20.29C45.2779 19.3926 46.4739 18.8756 47.73 18.85C48.95 18.83 50.13 19.29 51 20.15L52.27 18.87C51.6761 18.2742 50.9699 17.8021 50.1923 17.4812C49.4148 17.1602 48.5812 16.9966 47.74 17C45.32 16.9 43.04 18.14 41.8 20.23C41.1913 21.2506 40.87 22.4167 40.87 23.605C40.87 24.7933 41.1913 25.9594 41.8 26.98C42.4062 28.0046 43.2785 28.8459 44.3243 29.4146C45.3702 29.9833 46.5505 30.2582 47.74 30.21C49.47 30.31 51.14 29.61 52.34 28.37C53.3975 27.2243 53.9615 25.7083 53.91 24.15C53.91 23.77 53.89 23.39 53.81 23.02L47.75 23.08L47.74 23.06ZM93.04 24.46C92.7847 23.6921 92.2995 23.0213 91.6502 22.5383C91.0009 22.0554 90.2189 21.7837 89.41 21.76C88.31 21.76 87.26 22.2 86.51 23.01C85.74 23.81 85.35 24.91 85.41 26.01C85.41 27.14 85.83 28.23 86.63 29.03C87.43 29.83 88.51 30.28 89.63 30.26C91.06 30.26 92.39 29.56 93.18 28.38L91.73 27.38C91.29 28.11 90.5 28.56 89.63 28.56C88.75 28.59 87.93 28.08 87.58 27.26L93.28 24.92L93.06 24.48L93.04 24.46ZM87.24 25.88C87.21 25.26 87.42 24.64 87.84 24.18C88.26 23.71 88.84 23.43 89.47 23.4C90.13 23.36 90.75 23.7 91.05 24.3L87.25 25.88H87.24ZM82.65 30H84.51V17.5H82.64V30H82.65ZM79.58 22.7H79.51C78.94 22.06 78.13 21.7 77.27 21.7C75 21.8 73.22 23.68 73.22 25.95C73.22 28.23 75.02 30.1 77.28 30.21C78.14 30.23 78.96 29.87 79.52 29.21H79.58V29.83C79.58 31.46 78.71 32.33 77.31 32.33C76.8438 32.3192 76.3912 32.1712 76.0087 31.9043C75.6263 31.6375 75.3311 31.2638 75.16 30.83L73.53 31.5C73.8417 32.2421 74.366 32.8755 75.0368 33.3203C75.7076 33.7652 76.4951 34.0017 77.3 34C79.48 34 81.3 32.7 81.3 29.57V22H79.57V22.7H79.58ZM77.44 28.58C76.1 28.46 75.08 27.34 75.08 26C75.08 24.66 76.1 23.54 77.44 23.42C78.09 23.45 78.69 23.75 79.12 24.22C79.56 24.72 79.77 25.35 79.72 26C79.78 26.65 79.56 27.3 79.12 27.78C78.7 28.28 78.09 28.56 77.44 28.58ZM101.8 17.5H97.34V30H99.21V25.26H101.83C103.28 25.36 104.67 24.66 105.43 23.4C106.19 22.16 106.19 20.6 105.43 19.36C105.058 18.7494 104.526 18.2529 103.891 17.9249C103.256 17.5968 102.543 17.4498 101.83 17.5H101.8ZM101.8 23.5H99.2V19.24H101.85C103.03 19.24 104 20.2 104 21.39C104 22.56 103.03 23.52 101.85 23.52L101.81 23.49L101.8 23.5ZM113.34 21.7C111.94 21.62 110.64 22.37 110.01 23.6L111.68 24.3C112.01 23.68 112.68 23.32 113.38 23.38C113.86 23.32 114.34 23.46 114.72 23.78C115.1 24.08 115.34 24.51 115.39 24.98V25.12C114.79 24.8 114.12 24.64 113.44 24.64C111.64 24.64 109.84 25.64 109.84 27.44C109.88 28.24 110.24 28.96 110.81 29.48C111.38 30 112.15 30.26 112.93 30.2C113.89 30.27 114.81 29.8 115.33 29H115.39V30H117.19V25.2C117.19 23 115.53 21.73 113.39 21.73L113.35 21.7H113.34ZM113.11 28.55C112.51 28.55 111.66 28.25 111.66 27.49C111.66 26.49 112.72 26.15 113.66 26.15C114.26 26.15 114.84 26.28 115.36 26.57C115.297 27.1129 115.039 27.6146 114.635 27.9822C114.23 28.3499 113.706 28.5587 113.16 28.57L113.12 28.54L113.11 28.55ZM123.75 22L121.61 27.42H121.55L119.32 22H117.32L120.65 29.58L118.75 33.78H120.7L125.82 22H123.74H123.75ZM106.95 30H108.81V17.5H106.94V30H106.95Z" fill="white"/>
<path d="M10.44 7.55C10.11 7.95 9.94 8.48 10 9V31C9.97 31.5 10.13 32 10.46 32.4L10.53 32.47L22.9 20.15V19.85L10.5 7.5L10.44 7.57V7.55Z" fill="url(#paint0_linear_4025_134)"/>
<path d="M27 24.27L22.87 20.14V19.84L27 15.74L27.1 15.78L32 18.56C33.4 19.36 33.4 20.66 32 21.46L27.1 24.23L27 24.27Z" fill="url(#paint1_linear_4025_134)"/>
<path d="M27.1 24.22L22.9 20L10.43 32.45C11.03 32.97 11.89 32.99 12.51 32.51L27.11 24.23" fill="url(#paint2_linear_4025_134)"/>
<path d="M27.1 15.78L12.5 7.48004C12.2003 7.25001 11.83 7.13123 11.4524 7.144C11.0749 7.15677 10.7135 7.30029 10.43 7.55004L22.9 20L27.1 15.78Z" fill="#00F076"/>
<path d="M130.2 39C132.27 39 134 37.3 134 35.27V4.73C134 2.7 132.27 1 130.2 1H4.73C3.74074 1 2.79201 1.39298 2.0925 2.09249C1.39299 2.792 1 3.74074 1 4.73V35.27C1 37.32 2.68 39 4.73 39H130.2ZM130.2 40H4.73C2.13 40 0 37.87 0 35.27V4.73C0 2.13 2.12 0 4.73 0H130.2C132.8 0 135 2.12 135 4.73V35.27C135 37.87 132.8 40 130.2 40Z" fill="#A6A6A6"/>
</g>
</g>
<defs>
<linearGradient id="paint0_linear_4025_134" x1="655.583" y1="7.5" x2="655.583" y2="2504.5" gradientUnits="userSpaceOnUse">
<stop offset="0.03938" stop-color="#00C3FF"/>
<stop offset="0.97744" stop-color="#00E1FF"/>
</linearGradient>
<linearGradient id="paint1_linear_4025_134" x1="844.874" y1="442.24" x2="-1573.13" y2="442.24" gradientUnits="userSpaceOnUse">
<stop stop-color="#FDDE31"/>
<stop offset="0.4" stop-color="#FABC31"/>
<stop offset="0.77" stop-color="#F8A431"/>
<stop offset="1" stop-color="#F79B31"/>
</linearGradient>
<linearGradient id="paint2_linear_4025_134" x1="1447.43" y1="248.997" x2="-143.287" y2="2928.08" gradientUnits="userSpaceOnUse">
<stop stop-color="#FF3A44"/>
<stop offset="1" stop-color="#C4206D"/>
</linearGradient>
<clipPath id="clip0_4025_134">
<rect width="135" height="47.5" fill="white"/>
</clipPath>
<clipPath id="clip1_4025_134">
<rect width="270" height="40" fill="white" transform="translate(-135)"/>
</clipPath>
</defs>
</svg>
