<svg width="274" height="40" viewBox="0 0 274 40" fill="none" xmlns="http://www.w3.org/2000/svg">
<g clip-path="url(#clip0_4196_206)">
<g clip-path="url(#clip1_4196_206)">
<path d="M134.03 35.2704C134.03 37.3704 132.33 39.1004 130.2 39.1004H4.7299C2.5999 39.1004 0.899902 37.3804 0.899902 35.2704V4.72039C0.899902 2.63039 2.5999 0.900391 4.7199 0.900391H130.2C132.32 0.900391 134.03 2.60039 134.03 4.72039V35.2704Z" fill="#131313"/>
<path d="M30.1301 19.7807C30.1001 16.5607 32.7701 14.9807 32.8901 14.9207C31.3701 12.7207 29.0301 12.4207 28.1901 12.3907C26.2401 12.1707 24.3301 13.5607 23.3301 13.5607C22.3001 13.5607 20.7601 12.4007 19.1001 12.4407C16.9701 12.4707 14.9701 13.7107 13.8701 15.6407C11.6001 19.5407 13.2901 25.3207 15.4701 28.4907C16.5501 30.0407 17.8201 31.7907 19.4701 31.7207C21.1001 31.6507 21.7101 30.6807 23.6701 30.6807C25.6101 30.6807 26.1701 31.7107 27.8701 31.6807C29.6201 31.6407 30.7201 30.1107 31.7701 28.5407C33.0201 26.7607 33.5301 25.0107 33.5501 24.9207C33.5101 24.9007 30.1501 23.6207 30.1301 19.7607V19.7807ZM26.9301 10.3007C27.8001 9.2007 28.4001 7.7307 28.2301 6.2207C26.9701 6.2707 25.3901 7.0907 24.4801 8.1607C23.6801 9.1007 22.9501 10.6607 23.1401 12.1007C24.5601 12.2007 26.0201 11.3807 26.9401 10.3007H26.9301ZM53.6401 31.5007H51.3701L50.1301 27.6007H45.8001L44.6201 31.5007H42.4201L46.6901 18.2007H49.3301L53.6301 31.5007H53.6401ZM49.7401 25.9507L48.6401 22.4807C48.5101 22.1207 48.2901 21.2807 47.9601 19.9807H47.9201C47.7901 20.5407 47.5801 21.3807 47.2901 22.4807L46.1701 25.9507H49.7501H49.7401ZM64.6601 26.6007C64.6601 28.2207 64.2201 29.5007 63.3401 30.4607C62.5401 31.3007 61.5701 31.7207 60.4001 31.7207C59.1301 31.7207 58.2301 31.2707 57.6701 30.3607H57.6301V35.4107H55.5001V25.0807C55.5001 24.0507 55.4701 23.0007 55.4201 21.9207H57.3001L57.4201 23.4507H57.4601C58.1601 22.3007 59.2601 21.7307 60.6901 21.7307C61.8201 21.7307 62.7601 22.1907 63.5201 23.0807C64.2701 23.9807 64.6501 25.1607 64.6501 26.6207L64.6601 26.6007ZM62.4901 26.6707C62.4901 25.7307 62.2701 24.9707 61.8501 24.3707C61.3901 23.7207 60.7701 23.4107 59.9901 23.4107C59.4701 23.4107 58.9901 23.5907 58.5601 23.9407C58.1301 24.2907 57.8601 24.7407 57.7201 25.3107C57.6601 25.5807 57.6201 25.7907 57.6201 25.9607V27.5607C57.6201 28.2607 57.8401 28.8607 58.2701 29.3307C58.6901 29.8107 59.2501 30.0507 59.9301 30.0507C60.7301 30.0507 61.3601 29.7507 61.8101 29.1307C62.2601 28.5107 62.4801 27.6907 62.4801 26.6807L62.4901 26.6707ZM75.7001 26.6007C75.7001 28.2207 75.2601 29.5007 74.3701 30.4607C73.5901 31.3007 72.6001 31.7207 71.4301 31.7207C70.1701 31.7207 69.2601 31.2707 68.7101 30.3607H68.6801V35.4107H66.5501V25.0807C66.5501 24.0507 66.5201 23.0007 66.4701 21.9207H68.3401L68.4601 23.4507H68.5001C69.2001 22.3007 70.2801 21.7307 71.7301 21.7307C72.8601 21.7307 73.8101 22.1907 74.5601 23.0807C75.3201 23.9807 75.7001 25.1607 75.7001 26.6207V26.6007ZM73.5301 26.6707C73.5301 25.7307 73.3301 24.9707 72.8901 24.3707C72.4201 23.7207 71.8101 23.4107 71.0301 23.4107C70.5001 23.4107 70.0301 23.5907 69.6001 23.9407C69.1801 24.2907 68.9001 24.7407 68.7701 25.3107C68.7001 25.5807 68.6701 25.7907 68.6701 25.9607V27.5607C68.6701 28.2607 68.8701 28.8607 69.3101 29.3307C69.7501 29.8107 70.3101 30.0507 70.9901 30.0507C71.7901 30.0507 72.4201 29.7507 72.8701 29.1307C73.3101 28.5107 73.5401 27.6907 73.5401 26.6807L73.5301 26.6707ZM88.0401 27.7707C88.0401 28.9007 87.6401 29.8207 86.8601 30.5407C85.9901 31.3107 84.7801 31.7007 83.2301 31.7007C81.8001 31.7007 80.6501 31.4307 79.7801 30.8707L80.2801 29.0907C81.2101 29.6507 82.2401 29.9307 83.3601 29.9307C84.1601 29.9307 84.7901 29.7507 85.2401 29.3907C85.6801 29.0307 85.9101 28.5407 85.9101 27.9407C85.9101 27.4007 85.7301 26.9407 85.3601 26.5707C85.0001 26.2007 84.3801 25.8707 83.5301 25.5407C81.2001 24.6707 80.0301 23.4007 80.0301 21.7407C80.0301 20.6407 80.4301 19.7407 81.2601 19.0407C82.0601 18.3407 83.1601 17.9907 84.5201 17.9907C85.7401 17.9907 86.7401 18.1907 87.5501 18.6207L87.0001 20.3707C86.2401 19.9707 85.4001 19.7707 84.4501 19.7707C83.7001 19.7707 83.1101 19.9407 82.6901 20.3107C82.3201 20.6507 82.1501 21.0507 82.1501 21.5307C82.1501 22.0507 82.3501 22.4907 82.7501 22.8307C83.1101 23.1507 83.7501 23.4907 84.6901 23.8607C85.8401 24.3207 86.6901 24.8607 87.2201 25.4807C87.7601 26.0807 88.0201 26.8607 88.0201 27.7807L88.0401 27.7707ZM95.1001 23.5007H92.7401V28.1707C92.7401 29.3507 93.1401 29.9407 93.9801 29.9407C94.3601 29.9407 94.6801 29.9107 94.9301 29.8407L94.9901 31.4607C94.5601 31.6207 94.0101 31.7007 93.3201 31.7007C92.4801 31.7007 91.8201 31.4407 91.3401 30.9307C90.8701 30.4307 90.6401 29.5507 90.6401 28.3307V23.5107H89.2401V21.9107H90.6401V20.1607L92.7401 19.5307V21.9307H95.0801V23.5307L95.1001 23.5007ZM105.7 26.6307C105.7 28.1007 105.27 29.3107 104.43 30.2607C103.53 31.2307 102.37 31.7207 100.91 31.7207C99.5101 31.7207 98.3901 31.2507 97.5601 30.3207C96.7201 29.3907 96.3001 28.2207 96.3001 26.7907C96.3001 25.2907 96.7201 24.0707 97.6001 23.1207C98.4501 22.1807 99.6001 21.7007 101.07 21.7007C102.47 21.7007 103.61 22.1807 104.47 23.1007C105.27 24.0207 105.69 25.2007 105.69 26.6307H105.7ZM103.48 26.7007C103.48 25.8007 103.28 25.0507 102.91 24.4207C102.47 23.6507 101.83 23.2707 101.01 23.2707C100.15 23.2707 99.4901 23.6507 99.0501 24.4207C98.6501 25.0507 98.4801 25.8207 98.4801 26.7407C98.4801 27.6207 98.6601 28.3807 99.0501 29.0107C99.5101 29.7907 100.15 30.1707 100.98 30.1707C101.8 30.1707 102.44 29.7707 102.9 29.0007C103.28 28.3507 103.48 27.5807 103.48 26.7007ZM112.62 23.7807C112.42 23.7407 112.18 23.7207 111.95 23.7207C111.2 23.7207 110.62 24.0207 110.21 24.5707C109.87 25.0707 109.69 25.7107 109.69 26.4707V31.5007H107.56L107.58 24.9307C107.58 23.8307 107.55 22.8307 107.5 21.9107H109.34L109.42 23.7607H109.48C109.71 23.1207 110.06 22.6207 110.55 22.2307C111.02 21.8907 111.53 21.7307 112.09 21.7307C112.29 21.7307 112.45 21.7307 112.61 21.7607V23.7907L112.62 23.7807ZM122.16 26.2507C122.16 26.6307 122.13 26.9507 122.08 27.2207H115.68C115.71 28.1707 116.02 28.8907 116.61 29.3907C117.16 29.8307 117.86 30.0507 118.71 30.0507C119.66 30.0507 120.51 29.9007 121.31 29.6007L121.63 31.1007C120.73 31.4807 119.65 31.6807 118.43 31.6807C116.93 31.6807 115.76 31.2407 114.91 30.3807C114.06 29.4807 113.64 28.3207 113.64 26.8507C113.64 25.4007 114.04 24.1907 114.82 23.2307C115.66 22.2107 116.78 21.6907 118.19 21.6907C119.57 21.6907 120.62 22.1907 121.33 23.2207C121.9 24.0407 122.19 25.0407 122.19 26.2407L122.16 26.2507ZM120.12 25.7007C120.14 25.0707 120 24.5207 119.72 24.0607C119.34 23.4607 118.77 23.1607 118.02 23.1607C117.32 23.1607 116.75 23.4607 116.32 24.0407C115.96 24.5007 115.75 25.0407 115.68 25.7007H120.12ZM49.0501 10.0007C49.0501 11.2007 48.7001 12.0707 47.9901 12.6707C47.3301 13.2207 46.3901 13.4907 45.1901 13.4907C44.5901 13.4907 44.0901 13.4507 43.6701 13.3907V7.0007C44.2201 6.9007 44.8201 6.8707 45.4701 6.8707C46.6201 6.8707 47.4701 7.1207 48.0701 7.6107C48.7101 8.1707 49.0401 8.9707 49.0401 10.0107L49.0501 10.0007ZM47.9501 10.0407C47.9501 9.2807 47.7501 8.6907 47.3501 8.2807C46.9301 7.8807 46.3501 7.6807 45.5701 7.6807C45.2401 7.6807 44.9701 7.6807 44.7201 7.7407V12.6407C44.8501 12.6407 45.0901 12.6607 45.4201 12.6607C46.2201 12.6607 46.8501 12.4307 47.2901 11.9907C47.7101 11.5307 47.9301 10.8907 47.9301 10.0307L47.9501 10.0407ZM54.9001 11.0407C54.9001 11.7607 54.7001 12.3607 54.3001 12.8207C53.8501 13.3007 53.2801 13.5407 52.5601 13.5407C51.8601 13.5407 51.3201 13.3107 50.9101 12.8407C50.5101 12.3907 50.3101 11.8107 50.3101 11.1107C50.3101 10.3907 50.5101 9.8107 50.9401 9.3307C51.3601 8.8707 51.9401 8.6307 52.6401 8.6307C53.3401 8.6307 53.9001 8.8607 54.3201 9.3307C54.7201 9.7707 54.9201 10.3307 54.9201 11.0507L54.9001 11.0407ZM53.8201 11.0707C53.8201 10.6407 53.7201 10.2707 53.5401 9.9507C53.3201 9.5807 53.0101 9.3907 52.6001 9.3907C52.1801 9.3907 51.8601 9.5707 51.6401 9.9407C51.4401 10.2407 51.3601 10.6407 51.3601 11.0807C51.3601 11.5007 51.4601 11.8807 51.6401 12.1807C51.8701 12.5607 52.1801 12.7507 52.5901 12.7507C52.9901 12.7507 53.2901 12.5507 53.5201 12.1807C53.7201 11.8607 53.8201 11.4807 53.8201 11.0507V11.0707ZM62.7701 8.7207L61.2901 13.4207H60.3201L59.7201 11.3907C59.5501 10.8607 59.4201 10.3607 59.3201 9.8507C59.2201 10.3707 59.0901 10.8807 58.9201 11.3807L58.2801 13.4107H57.3001L55.9201 8.7107H57.0001L57.5401 10.9407C57.6701 11.4707 57.7801 11.9707 57.8701 12.4407C57.9701 12.0607 58.0901 11.5607 58.2701 10.9407L58.9401 8.7007H59.8001L60.4401 10.9007C60.5901 11.4407 60.7201 11.9607 60.8201 12.4507H60.8401C60.9101 11.9707 61.0201 11.4507 61.1601 10.9007L61.7401 8.7007H62.7601L62.7701 8.7207ZM68.2001 13.4307H67.1501V10.7307C67.1501 9.9007 66.8301 9.4907 66.2001 9.4907C65.9001 9.4907 65.6401 9.5907 65.4401 9.8207C65.2401 10.0507 65.1401 10.3207 65.1401 10.6207V13.4207H64.1001V10.0607C64.1001 9.6407 64.1001 9.1907 64.0701 8.7107H65.0001L65.0401 9.4407H65.0701C65.1901 9.2207 65.3701 9.0407 65.6101 8.8807C65.9101 8.6807 66.2101 8.6007 66.5701 8.6007C67.0101 8.6007 67.3701 8.7407 67.6701 9.0307C68.0301 9.3807 68.2101 9.9007 68.2101 10.5907V13.4207L68.2001 13.4307ZM71.1001 13.4307H70.0401V6.5607H71.0901L71.1001 13.4307ZM77.2601 11.0407C77.2601 11.7607 77.0601 12.3607 76.6401 12.8207C76.2001 13.3007 75.6401 13.5407 74.9101 13.5407C74.2301 13.5407 73.6801 13.3107 73.2701 12.8407C72.8701 12.3907 72.6501 11.8107 72.6501 11.1107C72.6501 10.3907 72.8501 9.8107 73.2901 9.3307C73.7101 8.8707 74.2901 8.6307 74.9901 8.6307C75.6901 8.6307 76.2401 8.8607 76.6701 9.3307C77.0701 9.7707 77.2701 10.3307 77.2701 11.0507L77.2601 11.0407ZM76.1601 11.0707C76.1601 10.6407 76.0801 10.2707 75.8901 9.9507C75.6601 9.5807 75.3501 9.3907 74.9401 9.3907C74.5201 9.3907 74.2001 9.5707 73.9801 9.9407C73.7801 10.2407 73.6801 10.6407 73.6801 11.0807C73.6801 11.5007 73.7801 11.8807 73.9801 12.1807C74.2001 12.5607 74.5101 12.7507 74.9201 12.7507C75.3201 12.7507 75.6201 12.5507 75.8601 12.1807C76.0601 11.8607 76.1601 11.4807 76.1601 11.0507V11.0707ZM82.3301 13.4307H81.3901L81.2901 12.8907H81.2701C80.9501 13.3107 80.4901 13.5307 79.9001 13.5307C79.4601 13.5307 79.1001 13.3907 78.8301 13.1007C78.5801 12.8607 78.4601 12.5307 78.4601 12.1507C78.4601 11.5807 78.7001 11.1507 79.1801 10.8307C79.6601 10.5307 80.3401 10.3807 81.2201 10.3907V10.2907C81.2201 9.6707 80.8901 9.3607 80.2401 9.3607C79.7701 9.3607 79.3601 9.4807 79.0101 9.7107L78.8101 9.0107C79.2401 8.7507 79.7801 8.6107 80.4101 8.6107C81.6501 8.6107 82.2701 9.2607 82.2701 10.5607V12.3007C82.2701 12.7807 82.2901 13.1607 82.3401 13.4307H82.3301ZM81.2301 11.8107V11.1107C80.0901 11.0807 79.5101 11.3907 79.5101 12.0507C79.5101 12.2907 79.5801 12.4807 79.7101 12.6007C79.8501 12.7007 80.0301 12.7707 80.2301 12.7707C80.4601 12.7707 80.6801 12.7007 80.8701 12.5507C81.0701 12.4107 81.1901 12.2207 81.2401 12.0007V11.8007L81.2301 11.8107ZM88.2801 13.4307H87.3501L87.3101 12.6807H87.2901C86.9901 13.2507 86.4901 13.5407 85.7701 13.5407C85.2001 13.5407 84.7301 13.3207 84.3701 12.8707C83.9701 12.4207 83.7901 11.8507 83.7901 11.1307C83.7901 10.3707 83.9901 9.7507 84.4101 9.2807C84.8101 8.8407 85.2801 8.6207 85.8601 8.6207C86.4901 8.6207 86.9401 8.8207 87.1901 9.2607H87.2101V6.5607H88.2601V12.1607C88.2601 12.6207 88.2601 13.0407 88.2901 13.4307H88.2801ZM87.2001 11.4507V10.6507C87.2001 10.5207 87.2001 10.4107 87.1701 10.3307C87.1101 10.0807 86.9701 9.8607 86.7901 9.6907C86.5901 9.5107 86.3501 9.4307 86.0901 9.4307C85.6901 9.4307 85.3901 9.5807 85.1601 9.8907C84.9401 10.1907 84.8201 10.5907 84.8201 11.0907C84.8201 11.5507 84.9201 11.9307 85.1401 12.2207C85.3701 12.5207 85.6801 12.6907 86.0601 12.6907C86.2204 12.6955 86.3794 12.6616 86.5239 12.592C86.6684 12.5224 86.7939 12.419 86.8901 12.2907C87.0901 12.0607 87.1901 11.7707 87.1901 11.4307L87.2001 11.4507ZM97.2501 11.0407C97.2501 11.7607 97.0501 12.3607 96.6301 12.8207C96.1901 13.3007 95.6301 13.5407 94.9001 13.5407C94.2001 13.5407 93.6601 13.3107 93.2501 12.8407C92.8501 12.3907 92.6301 11.8107 92.6301 11.1107C92.6301 10.3907 92.8301 9.8107 93.2701 9.3307C93.6901 8.8707 94.2701 8.6307 94.9701 8.6307C95.6701 8.6307 96.2301 8.8607 96.6501 9.3307C97.0501 9.7707 97.2501 10.3307 97.2501 11.0507V11.0407ZM96.1501 11.0707C96.1501 10.6407 96.0701 10.2707 95.8801 9.9507C95.6601 9.5807 95.3501 9.3907 94.9401 9.3907C94.5201 9.3907 94.2001 9.5707 93.9801 9.9407C93.7801 10.2407 93.7001 10.6407 93.7001 11.0807C93.7001 11.5007 93.8001 11.8807 93.9801 12.1807C94.2101 12.5607 94.5201 12.7507 94.9301 12.7507C95.3301 12.7507 95.6501 12.5507 95.8701 12.1807C96.0701 11.8607 96.1701 11.4807 96.1701 11.0507L96.1501 11.0707ZM102.88 13.4307H101.84V10.7307C101.84 9.9007 101.52 9.4907 100.89 9.4907C100.56 9.4907 100.31 9.5907 100.12 9.8207C99.9201 10.0507 99.8201 10.3207 99.8201 10.6207V13.4207H98.8001V10.0607C98.8001 9.6407 98.7801 9.1907 98.7501 8.7107H99.6701L99.7201 9.4407H99.7501C99.8701 9.2207 100.05 9.0407 100.29 8.8807C100.57 8.6807 100.89 8.6007 101.23 8.6007C101.67 8.6007 102.03 8.7407 102.33 9.0307C102.69 9.3807 102.87 9.9007 102.87 10.5907V13.4207L102.88 13.4307ZM109.94 9.5007H108.78V11.8007C108.78 12.3807 108.98 12.6707 109.38 12.6707C109.58 12.6707 109.74 12.6507 109.86 12.6207L109.89 13.4207C109.67 13.4907 109.39 13.5207 109.06 13.5207C108.66 13.5207 108.33 13.4007 108.09 13.1507C107.86 12.9007 107.74 12.4807 107.74 11.8807V9.5007H107.04L107.06 8.7207H107.74V7.8507L108.77 7.5507V8.7007H109.93V9.4807L109.94 9.5007ZM115.48 13.4307H114.43V10.7507C114.43 9.9107 114.13 9.4807 113.49 9.4807C112.99 9.4807 112.66 9.7307 112.49 10.2207C112.44 10.3207 112.43 10.4507 112.43 10.6007V13.4307H111.38V6.5607H112.42V9.4007H112.44C112.77 8.8807 113.24 8.6207 113.84 8.6207C114.29 8.6207 114.64 8.7607 114.94 9.0507C115.29 9.4007 115.46 9.9307 115.46 10.6307V13.4307H115.48ZM121.2 10.8507C121.2 11.0507 121.2 11.2007 121.17 11.3307H118.03C118.03 11.7907 118.19 12.1507 118.48 12.3907C118.75 12.5907 119.08 12.7107 119.51 12.7107C119.98 12.7107 120.41 12.6407 120.79 12.4907L120.95 13.2207C120.51 13.4207 119.98 13.5207 119.37 13.5207C118.64 13.5207 118.07 13.3007 117.65 12.8707C117.23 12.4407 117.03 11.8707 117.03 11.1307C117.03 10.4307 117.23 9.8307 117.61 9.3607C118.01 8.8607 118.56 8.6007 119.26 8.6007C119.93 8.6007 120.46 8.8707 120.8 9.3707C121.07 9.7707 121.2 10.2707 121.2 10.8507ZM120.2 10.5807C120.22 10.2807 120.15 10.0007 120 9.7807C119.82 9.4807 119.55 9.3407 119.17 9.3407C118.83 9.3407 118.55 9.4807 118.34 9.7707C118.16 9.9907 118.06 10.2707 118.04 10.5707H120.21L120.2 10.5807Z" fill="white"/>
<path d="M130.2 39C132.27 39 134 37.3 134 35.27V4.73C134 2.7 132.27 1 130.2 1H4.73C4.24017 1 3.75514 1.09648 3.30259 1.28393C2.85005 1.47138 2.43885 1.74613 2.09249 2.09249C1.39298 2.792 1 3.74074 1 4.73V35.27C1 37.32 2.68 39 4.73 39H130.2ZM130.2 40H4.73C2.13 40 0 37.87 0 35.27V4.73C0 2.13 2.12 0 4.73 0H130.2C132.8 0 135 2.12 135 4.73V35.27C135 37.87 132.8 40 130.2 40Z" fill="#A6A6A6"/>
</g>
</g>
<g clip-path="url(#clip2_4196_206)">
<g clip-path="url(#clip3_4196_206)">
<path d="M269 0H144C141.239 0 139 2.23858 139 5V35C139 37.7614 141.239 40 144 40H269C271.761 40 274 37.7614 274 35V5C274 2.23858 271.761 0 269 0Z" fill="#131313"/>
<path d="M186.42 10.2396C186.45 10.9796 186.18 11.6996 185.67 12.2396C185.1 12.8396 184.3 13.1596 183.47 13.1396C182.2 13.1196 181.07 12.3396 180.57 11.1796C180.1 10.0096 180.37 8.65961 181.27 7.75961C181.84 7.15961 182.64 6.83961 183.47 6.85961C183.89 6.85961 184.31 6.93961 184.7 7.10961C185.06 7.26961 185.38 7.50961 185.64 7.78961L185.11 8.31961C184.71 7.84961 184.11 7.58961 183.48 7.61961C182.85 7.61961 182.24 7.86961 181.8 8.31961C181.35 8.77961 181.12 9.38961 181.14 10.0196C181.14 10.9696 181.69 11.8396 182.56 12.2196C183.44 12.5996 184.46 12.4196 185.14 11.7496C185.44 11.4196 185.64 10.9796 185.64 10.5296H183.47V9.82961H186.37C186.41 9.96961 186.42 10.1296 186.42 10.2696V10.2396ZM191 7.73961H188.3V9.63961H190.76V10.3596H188.3V12.2596H191V12.9996H187.5V6.99961H191V7.73961ZM194.28 12.9996H193.51V7.73961H191.84V6.99961H196V7.73961H194.28V12.9996ZM198.94 12.9996V6.99961H199.71V12.9996H198.94ZM203.13 12.9996H202.36V7.73961H200.68V6.99961H204.8V7.73961H203.13V12.9996ZM212.6 12.2196C211.4 13.4196 209.43 13.4196 208.2 12.2196C207.637 11.6159 207.323 10.8206 207.323 9.99461C207.323 9.16857 207.637 8.37334 208.2 7.76961C208.8 7.16961 209.58 6.84961 210.4 6.84961C211.24 6.84961 212.03 7.17961 212.6 7.76961C213.178 8.3664 213.5 9.16425 213.5 9.99461C213.5 10.825 213.178 11.6228 212.6 12.2196ZM208.78 11.7196C209.68 12.6196 211.14 12.6196 212.04 11.7196C212.94 10.7396 212.94 9.25961 212.04 8.27961C211.14 7.37961 209.68 7.37961 208.78 8.27961C207.88 9.25961 207.88 10.7396 208.78 11.7196ZM214.58 12.9996V6.99961H215.52L218.44 11.6696V6.99961H219.21V12.9996H218.41L215.37 8.09961V12.9996H214.58Z" fill="white" stroke="white" stroke-width="0.2"/>
<path d="M207.14 21.75C204.8 21.75 202.9 23.67 202.91 26.01C202.915 27.139 203.368 28.22 204.168 29.0164C204.968 29.8129 206.051 30.26 207.18 30.26C209.52 30.26 211.42 28.36 211.42 26.01C211.45 24.87 211 23.78 210.2 22.98C209.4 22.18 208.3 21.74 207.16 21.76L207.14 21.75ZM207.14 28.58C206.08 28.65 205.09 28.08 204.64 27.12C204.18 26.16 204.34 25.02 205.07 24.25C205.79 23.47 206.91 23.22 207.9 23.6C208.9 24 209.54 24.94 209.54 26C209.57 26.66 209.34 27.3 208.88 27.8C208.43 28.28 207.8 28.56 207.14 28.58ZM197.84 21.75C195.48 21.75 193.59 23.65 193.59 26.01C193.59 27.1359 194.037 28.2156 194.833 29.0117C195.63 29.8078 196.709 30.255 197.835 30.255C198.961 30.255 200.041 29.8078 200.837 29.0117C201.633 28.2156 202.08 27.1359 202.08 26.01C202.08 24.87 201.64 23.78 200.84 22.98C200.04 22.18 198.94 21.74 197.8 21.76L197.84 21.75ZM197.84 28.58C196.77 28.66 195.78 28.08 195.32 27.13C194.86 26.17 195.02 25.03 195.75 24.25C196.104 23.8724 196.562 23.6089 197.066 23.4931C197.57 23.3773 198.097 23.4146 198.58 23.6C199.58 24 200.22 24.94 200.22 26C200.25 26.66 200.02 27.3 199.56 27.8C199.11 28.28 198.48 28.56 197.82 28.58H197.84ZM186.74 23.06V24.86H191.06C190.99 25.71 190.64 26.51 190.06 27.13C189.19 28.03 187.98 28.5 186.73 28.45C185.474 28.4244 184.278 27.9074 183.399 27.01C182.52 26.1126 182.027 24.9063 182.027 23.65C182.027 22.3937 182.52 21.1874 183.399 20.29C184.278 19.3926 185.474 18.8756 186.73 18.85C187.95 18.83 189.13 19.29 190 20.15L191.27 18.87C190.676 18.2742 189.97 17.8021 189.192 17.4812C188.415 17.1602 187.581 16.9966 186.74 17C184.32 16.9 182.04 18.14 180.8 20.23C180.191 21.2506 179.87 22.4167 179.87 23.605C179.87 24.7933 180.191 25.9594 180.8 26.98C181.406 28.0046 182.279 28.8459 183.324 29.4146C184.37 29.9833 185.551 30.2582 186.74 30.21C188.47 30.31 190.14 29.61 191.34 28.37C192.398 27.2243 192.962 25.7083 192.91 24.15C192.91 23.77 192.89 23.39 192.81 23.02L186.75 23.08L186.74 23.06ZM232.04 24.46C231.785 23.6921 231.3 23.0213 230.65 22.5383C230.001 22.0554 229.219 21.7837 228.41 21.76C227.31 21.76 226.26 22.2 225.51 23.01C224.74 23.81 224.35 24.91 224.41 26.01C224.41 27.14 224.83 28.23 225.63 29.03C226.43 29.83 227.51 30.28 228.63 30.26C230.06 30.26 231.39 29.56 232.18 28.38L230.73 27.38C230.29 28.11 229.5 28.56 228.63 28.56C227.75 28.59 226.93 28.08 226.58 27.26L232.28 24.92L232.06 24.48L232.04 24.46ZM226.24 25.88C226.21 25.26 226.42 24.64 226.84 24.18C227.26 23.71 227.84 23.43 228.47 23.4C229.13 23.36 229.75 23.7 230.05 24.3L226.25 25.88H226.24ZM221.65 30H223.51V17.5H221.64V30H221.65ZM218.58 22.7H218.51C217.94 22.06 217.13 21.7 216.27 21.7C214 21.8 212.22 23.68 212.22 25.95C212.22 28.23 214.02 30.1 216.28 30.21C217.14 30.23 217.96 29.87 218.52 29.21H218.58V29.83C218.58 31.46 217.71 32.33 216.31 32.33C215.844 32.3192 215.391 32.1712 215.009 31.9043C214.626 31.6375 214.331 31.2638 214.16 30.83L212.53 31.5C212.842 32.2421 213.366 32.8755 214.037 33.3203C214.708 33.7652 215.495 34.0017 216.3 34C218.48 34 220.3 32.7 220.3 29.57V22H218.57V22.7H218.58ZM216.44 28.58C215.1 28.46 214.08 27.34 214.08 26C214.08 24.66 215.1 23.54 216.44 23.42C217.09 23.45 217.69 23.75 218.12 24.22C218.56 24.72 218.77 25.35 218.72 26C218.78 26.65 218.56 27.3 218.12 27.78C217.7 28.28 217.09 28.56 216.44 28.58ZM240.8 17.5H236.34V30H238.21V25.26H240.83C242.28 25.36 243.67 24.66 244.43 23.4C245.19 22.16 245.19 20.6 244.43 19.36C244.059 18.7494 243.526 18.2529 242.891 17.9249C242.256 17.5968 241.543 17.4498 240.83 17.5H240.8ZM240.8 23.5H238.2V19.24H240.85C242.03 19.24 243 20.2 243 21.39C243 22.56 242.03 23.52 240.85 23.52L240.81 23.49L240.8 23.5ZM252.34 21.7C250.94 21.62 249.64 22.37 249.01 23.6L250.68 24.3C251.01 23.68 251.68 23.32 252.38 23.38C252.86 23.32 253.34 23.46 253.72 23.78C254.1 24.08 254.34 24.51 254.39 24.98V25.12C253.79 24.8 253.12 24.64 252.44 24.64C250.64 24.64 248.84 25.64 248.84 27.44C248.88 28.24 249.24 28.96 249.81 29.48C250.38 30 251.15 30.26 251.93 30.2C252.89 30.27 253.81 29.8 254.33 29H254.39V30H256.19V25.2C256.19 23 254.53 21.73 252.39 21.73L252.35 21.7H252.34ZM252.11 28.55C251.51 28.55 250.66 28.25 250.66 27.49C250.66 26.49 251.72 26.15 252.66 26.15C253.26 26.15 253.84 26.28 254.36 26.57C254.297 27.1129 254.039 27.6146 253.635 27.9822C253.23 28.3499 252.707 28.5587 252.16 28.57L252.12 28.54L252.11 28.55ZM262.75 22L260.61 27.42H260.55L258.32 22H256.32L259.65 29.58L257.75 33.78H259.7L264.82 22H262.74H262.75ZM245.95 30H247.81V17.5H245.94V30H245.95Z" fill="white"/>
<path d="M149.44 7.55C149.11 7.95 148.94 8.48 149 9V31C148.97 31.5 149.13 32 149.46 32.4L149.53 32.47L161.9 20.15V19.85L149.5 7.5L149.44 7.57V7.55Z" fill="url(#paint0_linear_4196_206)"/>
<path d="M166 24.27L161.87 20.14V19.84L166 15.74L166.1 15.78L171 18.56C172.4 19.36 172.4 20.66 171 21.46L166.1 24.23L166 24.27Z" fill="url(#paint1_linear_4196_206)"/>
<path d="M166.1 24.22L161.9 20L149.43 32.45C150.03 32.97 150.89 32.99 151.51 32.51L166.11 24.23" fill="url(#paint2_linear_4196_206)"/>
<path d="M166.1 15.7795L151.5 7.47955C151.2 7.24952 150.83 7.13074 150.452 7.14351C150.075 7.15628 149.713 7.2998 149.43 7.54955L161.9 19.9995L166.1 15.7795Z" fill="#00F076"/>
<path d="M269.2 39C271.27 39 273 37.3 273 35.27V4.73C273 2.7 271.27 1 269.2 1H143.73C142.741 1 141.792 1.39298 141.092 2.09249C140.393 2.792 140 3.74074 140 4.73V35.27C140 37.32 141.68 39 143.73 39H269.2ZM269.2 40H143.73C141.13 40 139 37.87 139 35.27V4.73C139 2.13 141.12 0 143.73 0H269.2C271.8 0 274 2.12 274 4.73V35.27C274 37.87 271.8 40 269.2 40Z" fill="#A6A6A6"/>
</g>
</g>
<defs>
<linearGradient id="paint0_linear_4196_206" x1="794.583" y1="7.5" x2="794.583" y2="2504.5" gradientUnits="userSpaceOnUse">
<stop offset="0.03938" stop-color="#00C3FF"/>
<stop offset="0.97744" stop-color="#00E1FF"/>
</linearGradient>
<linearGradient id="paint1_linear_4196_206" x1="983.874" y1="442.24" x2="-1434.13" y2="442.24" gradientUnits="userSpaceOnUse">
<stop stop-color="#FDDE31"/>
<stop offset="0.4" stop-color="#FABC31"/>
<stop offset="0.77" stop-color="#F8A431"/>
<stop offset="1" stop-color="#F79B31"/>
</linearGradient>
<linearGradient id="paint2_linear_4196_206" x1="1586.43" y1="248.997" x2="-4.28716" y2="2928.08" gradientUnits="userSpaceOnUse">
<stop stop-color="#FF3A44"/>
<stop offset="1" stop-color="#C4206D"/>
</linearGradient>
<clipPath id="clip0_4196_206">
<rect width="135" height="40" fill="white"/>
</clipPath>
<clipPath id="clip1_4196_206">
<rect width="270" height="40" fill="white"/>
</clipPath>
<clipPath id="clip2_4196_206">
<rect width="135" height="40" fill="white" transform="translate(139)"/>
</clipPath>
<clipPath id="clip3_4196_206">
<rect width="270" height="40" fill="white" transform="translate(4)"/>
</clipPath>
</defs>
</svg>
