<svg width="56" height="56" viewBox="0 0 56 56" fill="none" xmlns="http://www.w3.org/2000/svg">
<path d="M27.7068 31.3509C28.7723 31.3509 29.7952 30.9266 30.5486 30.1732C33.0793 27.6424 31.2934 23.3087 27.7144 23.3087C26.649 23.3087 25.626 23.7331 24.8727 24.4865C22.3419 27.0172 24.1278 31.3509 27.7068 31.3509Z" fill="#9772FF"/>
<path fill-rule="evenodd" clip-rule="evenodd" d="M41.6547 53.9497C40.342 55.2625 38.5615 56 36.705 56H19.295C17.4385 56 15.658 55.2625 14.3453 53.9497L2.05024 41.6546C0.737493 40.3419 0 38.5614 0 36.7049V19.3222C0 17.468 0.735679 15.6895 2.04557 14.3772L14.3445 2.05494C15.6576 0.739318 17.4401 0 19.2989 0H36.7011C38.5599 0 40.3424 0.739317 41.6555 2.05494L53.9544 14.3772C55.2643 15.6895 56 17.468 56 19.3222V36.7049C56 38.5614 55.2625 40.3419 53.9498 41.6546L41.6547 53.9497ZM10.2911 16.6677C6.7087 16.6677 4.91462 12.3364 7.44777 9.80328C8.20188 9.04918 9.22466 8.62552 10.2911 8.62552H16.865C18.0064 8.62552 18.5771 8.62553 19.1142 8.49658C19.5904 8.38227 20.0456 8.19371 20.4631 7.93785C20.9341 7.64925 21.3376 7.2457 22.1447 6.43859L26.822 1.76133C27.5763 1.00707 28.5993 0.583333 29.6659 0.583333C33.2472 0.583333 35.0425 4.91171 32.5125 7.44647L23.3087 16.6677H10.2911ZM13.3297 26.6467L23.3087 16.6677H37.3905C43.0448 16.6677 45.872 16.6677 47.1811 17.7858C48.317 18.756 48.9198 20.2113 48.8026 21.7005C48.6675 23.4168 46.6684 25.4159 42.6703 29.4141L34.8782 37.2062C34.0711 38.0133 33.6675 38.4168 33.1966 38.7054C32.7791 38.9613 32.3238 39.1499 31.8477 39.2642C31.3106 39.3931 30.7399 39.3931 29.5985 39.3931H18.6095C12.9552 39.3931 10.128 39.3931 8.81891 38.275C7.68299 37.3049 7.08018 35.8495 7.19738 34.3603C7.33246 32.644 9.33155 30.6449 13.3297 26.6467ZM45.7088 39.3626C49.2913 39.3626 51.0854 43.694 48.5522 46.2272C47.7981 46.9813 46.7753 47.405 45.7088 47.405H39.1267C37.9882 47.405 37.419 47.405 36.8832 47.5333C36.4081 47.6471 35.9538 47.8347 35.537 48.0894C35.0668 48.3767 34.6635 48.7784 33.857 49.5819L29.1762 54.2449C28.4229 54.9953 27.403 55.4167 26.3398 55.4167C22.7593 55.4167 20.9662 51.0877 23.498 48.556L30.5043 41.5496C31.3114 40.7425 31.715 40.3389 32.1859 40.0503C32.6035 39.7944 33.0587 39.6059 33.5349 39.4916C34.0719 39.3626 34.6426 39.3626 35.7841 39.3626H45.7088Z" fill="#9772FF"/>
</svg>
