<svg width="1800" height="721" viewBox="0 0 1800 721" fill="none" xmlns="http://www.w3.org/2000/svg">
<g clip-path="url(#clip0_4421_103)">
<rect y="721" width="721" height="1800" rx="24" transform="rotate(-90 0 721)" fill="white"/>
<g opacity="0.25" clip-path="url(#clip1_4421_103)">
<path d="M877.208 513.848L691.037 741.993C685.367 748.942 686.403 759.171 693.352 764.841L960.625 982.941C967.574 988.612 977.803 987.575 983.473 980.627L1169.64 752.481C1175.31 745.533 1174.28 735.304 1167.33 729.633L900.056 511.533C893.107 505.863 882.878 506.899 877.208 513.848Z" fill="#57761E"/>
<path d="M646.552 325.631L460.381 553.776C454.711 560.725 455.748 570.954 462.696 576.624L626.646 710.41C633.594 716.08 643.824 715.044 649.494 708.095L835.665 479.95C841.335 473.002 840.298 462.772 833.35 457.102L669.4 323.316C662.452 317.646 652.222 318.682 646.552 325.631Z" fill="#57761E"/>
<path d="M515.048 15.9078L130.576 487.063C124.906 494.012 125.942 504.241 132.891 509.911L296.841 643.697C303.789 649.367 314.018 648.331 319.689 641.383L704.16 170.227C709.83 163.279 708.794 153.049 701.846 147.379L537.896 13.5931C530.947 7.92302 520.718 8.95936 515.048 15.9078Z" fill="#57761E"/>
<path d="M-54.7187 436.1L-147.621 549.948C-153.291 556.896 -152.255 567.126 -145.306 572.796L154.838 817.719C161.786 823.389 172.015 822.353 177.686 815.404L270.588 701.556C276.258 694.608 275.222 684.378 268.273 678.708L-31.8709 433.785C-38.8193 428.115 -49.0487 429.151 -54.7187 436.1Z" fill="#57761E"/>
<path d="M525.062 -274.4L432.159 -160.552C426.489 -153.604 427.525 -143.374 434.474 -137.704L734.618 107.219C741.566 112.889 751.796 111.853 757.466 104.904L850.368 -8.94393C856.038 -15.8924 855.002 -26.1217 848.053 -31.7918L547.909 -276.715C540.961 -282.385 530.732 -281.349 525.062 -274.4Z" fill="#57761E"/>
<path d="M1456.54 485.707L1270.37 713.852C1264.7 720.801 1265.74 731.03 1272.69 736.7L1509.52 929.96C1516.47 935.63 1526.7 934.594 1532.37 927.646L1718.54 699.5C1724.21 692.552 1723.17 682.322 1716.22 676.652L1479.39 483.392C1472.44 477.722 1462.21 478.758 1456.54 485.707Z" fill="#57761E"/>
<path d="M1839.74 318.098L1653.57 546.243C1647.9 553.191 1648.94 563.421 1655.88 569.091L1744.79 641.643C1751.74 647.313 1761.97 646.277 1767.64 639.328L1953.81 411.183C1959.48 404.234 1958.45 394.005 1951.5 388.335L1862.59 315.783C1855.64 310.113 1845.41 311.149 1839.74 318.098Z" fill="#57761E"/>
<path d="M1772.21 98.871L1509.85 420.385C1501.86 430.177 1501.01 442.712 1507.96 448.382L1596.87 520.934C1603.82 526.604 1615.93 523.262 1623.92 513.47L1886.28 191.956C1894.27 182.164 1895.12 169.629 1888.17 163.959L1799.26 91.4074C1792.31 85.7373 1780.2 89.0789 1772.21 98.871Z" fill="#57761E"/>
<path d="M891.909 24.955L705.738 253.1C700.068 260.049 701.105 270.278 708.053 275.948L1205.98 682.267C1212.93 687.937 1223.16 686.901 1228.83 679.952L1415 451.807C1420.67 444.858 1419.63 434.629 1412.69 428.959L914.757 22.6402C907.809 16.9701 897.579 18.0065 891.909 24.955Z" fill="#57761E"/>
<path d="M949.252 -310.187L811.267 -141.091C805.596 -134.142 806.633 -123.913 813.581 -118.243L1441.25 393.95C1448.2 399.62 1458.43 398.583 1464.1 391.635L1602.09 222.539C1607.76 215.59 1606.72 205.361 1599.77 199.691L972.1 -312.502C965.152 -318.172 954.922 -317.135 949.252 -310.187Z" fill="#57761E"/>
<path d="M-425.248 -249.352L-563.234 -80.2554C-568.904 -73.3069 -567.868 -63.0776 -560.919 -57.4075L66.7531 454.785C73.7016 460.455 83.931 459.419 89.601 452.47L227.587 283.374C233.257 276.426 232.22 266.196 225.272 260.526L-402.4 -251.666C-409.349 -257.336 -419.578 -256.3 -425.248 -249.352Z" fill="#57761E"/>
<path d="M-237.597 -479.312L-375.583 -310.216C-381.253 -303.268 -380.217 -293.038 -373.268 -287.368L254.404 224.824C261.352 230.494 271.582 229.458 277.252 222.51L415.238 53.4135C420.908 46.4651 419.871 36.2357 412.923 30.5657L-214.75 -481.627C-221.698 -487.297 -231.927 -486.261 -237.597 -479.312Z" fill="#57761E"/>
<path d="M-175.127 -555.868L-190.725 -536.753C-196.395 -529.805 -195.359 -519.575 -188.41 -513.905L439.262 -1.71286C446.21 3.95722 456.44 2.9209 462.11 -4.02755L477.708 -23.1424C483.378 -30.0909 482.342 -40.3202 475.393 -45.9903L-152.279 -558.183C-159.228 -563.853 -169.457 -562.817 -175.127 -555.868Z" fill="#57761E"/>
<path d="M401.196 626.307L215.025 854.452C209.355 861.4 210.392 871.63 217.34 877.3L715.268 1283.62C722.217 1289.29 732.446 1288.25 738.116 1281.3L924.287 1053.16C929.957 1046.21 928.921 1035.98 921.972 1030.31L424.044 623.992C417.096 618.322 406.866 619.358 401.196 626.307Z" fill="#57761E"/>
<path d="M876.66 577.583L753.369 728.671C742.028 742.568 744.101 763.027 757.998 774.367L938.327 921.519C952.224 932.859 972.683 930.786 984.023 916.89L1107.31 765.801C1118.65 751.904 1116.58 731.446 1102.68 720.106L922.355 572.953C908.458 561.613 888 563.686 876.66 577.583Z" fill="#57761E"/>
<path d="M577.485 456.371L508.316 541.134C496.976 555.031 499.049 575.49 512.946 586.83L606.569 663.229C620.466 674.569 640.925 672.496 652.265 658.599L721.434 573.835C732.774 559.938 730.701 539.48 716.804 528.14L623.181 451.741C609.284 440.401 588.825 442.474 577.485 456.371Z" fill="#57761E"/>
<path d="M644.848 373.816L637.369 382.982C626.028 396.879 628.101 417.338 641.998 428.678L672.701 453.732C686.598 465.072 707.057 463 718.397 449.103L725.876 439.937C737.216 426.04 735.144 405.582 721.247 394.242L690.543 369.187C676.647 357.847 656.188 359.92 644.848 373.816Z" fill="#57761E"/>
<path d="M505.925 71.4238L183.135 466.99C171.795 480.887 173.868 501.345 187.765 512.685L283.12 590.497C297.017 601.837 317.475 599.765 328.815 585.868L651.605 190.302C662.945 176.405 660.872 155.946 646.975 144.606L551.62 66.7943C537.723 55.4542 517.265 57.5269 505.925 71.4238Z" fill="#57761E"/>
<path d="M-56.9847 481.061L-104.028 538.71C-115.368 552.607 -113.295 573.066 -99.3985 584.406L134.256 775.073C148.153 786.413 168.612 784.34 179.952 770.443L226.995 712.794C238.335 698.897 236.262 678.438 222.365 667.098L-11.289 476.431C-25.1859 465.091 -45.6445 467.164 -56.9847 481.061Z" fill="#57761E"/>
<path d="M516.247 -226.33L477.483 -178.826C466.143 -164.93 468.216 -144.471 482.113 -133.131L720.582 61.4649C734.479 72.805 754.938 70.7323 766.278 56.8355L805.042 9.33192C816.382 -4.56497 814.309 -25.0236 800.412 -36.3638L561.943 -230.959C548.046 -242.3 527.587 -240.227 516.247 -226.33Z" fill="#57761E"/>
<path d="M1445.55 568.264L1349.05 686.525C1337.71 700.422 1339.78 720.88 1353.68 732.22L1497.67 849.716C1511.56 861.056 1532.02 858.984 1543.36 845.087L1639.86 726.826C1651.2 712.929 1649.13 692.47 1635.23 681.13L1491.25 563.634C1477.35 552.294 1456.89 554.367 1445.55 568.264Z" fill="#57761E"/>
<path d="M1829.22 392.585L1724.43 520.994C1713.09 534.89 1715.16 555.349 1729.06 566.689L1732.47 569.47C1746.37 580.81 1766.82 578.737 1778.16 564.84L1882.95 436.432C1894.29 422.535 1892.22 402.076 1878.32 390.736L1874.91 387.956C1861.01 376.616 1840.56 378.688 1829.22 392.585Z" fill="#57761E"/>
<path d="M1672.74 264.9L1567.96 393.308C1556.62 407.205 1558.69 427.664 1572.59 439.004L1593.1 455.741C1607 467.081 1627.45 465.009 1638.79 451.112L1743.58 322.703C1754.92 308.806 1752.85 288.348 1738.95 277.008L1718.44 260.27C1704.54 248.93 1684.08 251.003 1672.74 264.9Z" fill="#57761E"/>
<path d="M889.462 78.2208L757.43 240.021C746.089 253.918 748.162 274.377 762.059 285.717L876.225 378.878C890.122 390.219 910.581 388.146 921.921 374.249L1053.95 212.449C1065.29 198.552 1063.22 178.093 1049.32 166.753L935.157 73.5914C921.26 62.2513 900.802 64.3239 889.462 78.2208Z" fill="#57761E"/>
<path d="M1077.22 231.436L945.189 393.236C933.849 407.133 935.922 427.591 949.819 438.932L1063.98 532.093C1077.88 543.433 1098.34 541.361 1109.68 527.464L1241.71 365.664C1253.05 351.767 1250.98 331.308 1237.08 319.968L1122.92 226.806C1109.02 215.466 1088.56 217.539 1077.22 231.436Z" fill="#57761E"/>
<path d="M1195.65 469.613L1132.95 546.451C1121.61 560.348 1123.68 580.806 1137.58 592.146L1185.86 631.546C1199.76 642.886 1220.22 640.813 1231.56 626.916L1294.26 550.078C1305.6 536.181 1303.53 515.723 1289.63 504.382L1241.35 464.983C1227.45 453.643 1206.99 455.716 1195.65 469.613Z" fill="#57761E"/>
<path d="M1264.98 384.651L1251.6 401.056C1240.26 414.953 1242.33 435.412 1256.23 446.752L1304.51 486.151C1318.4 497.491 1338.86 495.419 1350.2 481.522L1363.59 465.116C1374.93 451.22 1372.86 430.761 1358.96 419.421L1310.68 380.021C1296.78 368.681 1276.32 370.754 1264.98 384.651Z" fill="#57761E"/>
<path d="M940.202 -249.403L869 -162.147C857.66 -148.25 859.732 -127.791 873.629 -116.451L1043.52 22.1827C1057.42 33.5228 1077.88 31.4501 1089.22 17.5533L1160.42 -69.7025C1171.76 -83.5993 1169.69 -104.058 1155.79 -115.398L985.898 -254.032C972.001 -265.372 951.542 -263.3 940.202 -249.403Z" fill="#57761E"/>
<path d="M1197.04 -39.8187L1125.84 47.4371C1114.5 61.3339 1116.57 81.7926 1130.47 93.1327L1300.36 231.767C1314.26 243.107 1334.72 241.034 1346.06 227.137L1417.26 139.882C1428.6 125.985 1426.53 105.526 1412.63 94.1858L1242.74 -44.4481C1228.84 -55.7882 1208.38 -53.7155 1197.04 -39.8187Z" fill="#57761E"/>
<path d="M1453.88 169.767L1382.68 257.023C1371.34 270.92 1373.41 291.379 1387.31 302.719L1427.46 335.48C1441.35 346.82 1461.81 344.747 1473.15 330.851L1544.35 243.595C1555.69 229.698 1553.62 209.239 1539.72 197.899L1499.58 165.138C1485.68 153.798 1465.22 155.87 1453.88 169.767Z" fill="#57761E"/>
<path d="M-394.217 -178.926L-488.016 -63.979C-499.356 -50.0821 -497.283 -29.6234 -483.386 -18.2833L49.4012 416.481C63.2981 427.822 83.7567 425.749 95.0968 411.852L188.896 296.905C200.236 283.008 198.163 262.55 184.266 251.21L-348.521 -183.555C-362.418 -194.895 -382.877 -192.823 -394.217 -178.926Z" fill="#57761E"/>
<path d="M-155.603 -360.736L-242.97 -253.67C-254.31 -239.773 -252.238 -219.315 -238.341 -207.975L240.27 182.581C254.167 193.921 274.626 191.849 285.966 177.952L373.334 70.8861C384.674 56.9892 382.601 36.5306 368.704 25.1905L-109.907 -365.365C-123.804 -376.706 -144.263 -374.633 -155.603 -360.736Z" fill="#57761E"/>
<path d="M1235.79 -365.81L1148.42 -258.745C1137.08 -244.848 1139.16 -224.389 1153.05 -213.049L1631.66 177.507C1645.56 188.847 1666.02 186.774 1677.36 172.878L1764.73 65.8119C1776.07 51.915 1774 31.4564 1760.1 20.1163L1281.49 -370.44C1267.59 -381.78 1247.13 -379.707 1235.79 -365.81Z" fill="#57761E"/>
<path d="M393.728 685.722L271.739 835.214C260.399 849.111 262.472 869.57 276.369 880.91L480.488 1047.48C494.385 1058.82 514.843 1056.74 526.184 1042.85L648.172 893.354C659.512 879.457 657.439 858.998 643.543 847.658L439.423 681.093C425.526 669.753 405.068 671.825 393.728 685.722Z" fill="#57761E"/>
</g>
</g>
<defs>
<clipPath id="clip0_4421_103">
<rect y="721" width="721" height="1800" rx="24" transform="rotate(-90 0 721)" fill="white"/>
</clipPath>
<clipPath id="clip1_4421_103">
<rect width="852.74" height="1846.47" fill="white" transform="matrix(0 -1 1 0 0 764.205)"/>
</clipPath>
</defs>
</svg>
