<svg width="320" height="664" viewBox="0 0 320 664" fill="none" xmlns="http://www.w3.org/2000/svg">
<g opacity="0.25" clip-path="url(#clip0_4408_134)">
<path d="M138.177 434.345L58.3402 553.671C55.9086 557.306 56.353 562.656 59.3328 565.621L173.949 679.694C176.928 682.66 181.315 682.118 183.747 678.483L263.583 559.157C266.015 555.523 265.57 550.173 262.59 547.207L147.974 433.134C144.995 430.169 140.608 430.711 138.177 434.345Z" fill="#57761E"/>
<path d="M39.2634 335.902L-40.5729 455.229C-43.0045 458.863 -42.56 464.213 -39.5803 467.179L30.7269 537.153C33.7066 540.118 38.0933 539.576 40.5248 535.942L120.361 416.616C122.793 412.981 122.348 407.631 119.369 404.666L49.0614 334.692C46.0816 331.726 41.6949 332.268 39.2634 335.902Z" fill="#57761E"/>
<path d="M-17.1311 173.909L-182.006 420.336C-184.437 423.97 -183.993 429.32 -181.013 432.286L-110.706 502.26C-107.726 505.226 -103.339 504.684 -100.908 501.049L63.9666 254.622C66.3981 250.988 65.9537 245.637 62.974 242.672L-7.33323 172.698C-10.313 169.732 -14.6996 170.274 -17.1311 173.909Z" fill="#57761E"/>
<path d="M-12.8358 22.0696L-52.6755 81.6154C-55.107 85.2497 -54.6626 90.5999 -51.6829 93.5655L77.029 221.667C80.0088 224.633 84.3954 224.091 86.8269 220.457L126.667 160.911C129.098 157.276 128.654 151.926 125.674 148.961L-3.03789 20.8589C-6.01762 17.8933 -10.4043 18.4354 -12.8358 22.0696Z" fill="#57761E"/>
<path d="M386.616 419.627L306.78 538.953C304.348 542.587 304.792 547.937 307.772 550.903L409.334 651.984C412.314 654.949 416.701 654.407 419.132 650.773L498.968 531.446C501.4 527.812 500.956 522.462 497.976 519.496L396.414 418.416C393.434 415.45 389.047 415.992 386.616 419.627Z" fill="#57761E"/>
<path d="M144.481 178.641L64.6448 297.967C62.2133 301.601 62.6577 306.951 65.6375 309.917L279.166 522.433C282.146 525.399 286.532 524.857 288.964 521.222L368.8 401.896C371.232 398.262 370.787 392.912 367.807 389.946L154.279 177.43C151.299 174.464 146.913 175.006 144.481 178.641Z" fill="#57761E"/>
<path d="M169.072 3.35207L109.899 91.794C107.467 95.4283 107.912 100.778 110.891 103.744L380.058 371.635C383.038 374.601 387.425 374.059 389.856 370.424L449.029 281.982C451.461 278.348 451.016 272.998 448.037 270.032L178.87 2.14141C175.89 -0.824189 171.503 -0.282162 169.072 3.35207Z" fill="#57761E"/>
<path d="M-65.9534 493.164L-145.79 612.49C-148.221 616.125 -147.777 621.475 -144.797 624.441L68.7313 836.957C71.711 839.922 76.0977 839.38 78.5292 835.746L158.366 716.42C160.797 712.785 160.353 707.435 157.373 704.47L-56.1554 491.953C-59.1352 488.988 -63.5218 489.53 -65.9534 493.164Z" fill="#57761E"/>
<path d="M137.94 467.68L85.069 546.704C80.2059 553.972 81.0948 564.673 87.0542 570.604L164.385 647.569C170.345 653.5 179.118 652.416 183.981 645.147L236.853 566.124C241.716 558.855 240.827 548.155 234.867 542.224L157.536 465.259C151.577 459.328 142.803 460.412 137.94 467.68Z" fill="#57761E"/>
<path d="M9.64496 404.283L-20.017 448.617C-24.88 455.885 -23.9912 466.586 -18.0317 472.517L22.1172 512.475C28.0766 518.407 36.85 517.323 41.713 510.054L71.3749 465.72C76.238 458.452 75.3491 447.751 69.3897 441.82L29.2408 401.862C23.2813 395.93 14.508 397.014 9.64496 404.283Z" fill="#57761E"/>
<path d="M38.5322 361.105L35.3248 365.899C30.4618 373.167 31.3506 383.868 37.3101 389.799L50.4767 402.903C56.4361 408.834 65.2095 407.75 70.0725 400.482L73.2799 395.688C78.1429 388.419 77.2541 377.719 71.2946 371.788L58.128 358.683C52.1686 352.752 43.3952 353.836 38.5322 361.105Z" fill="#57761E"/>
<path d="M-21.0433 202.945L-159.466 409.837C-164.329 417.106 -163.44 427.806 -157.481 433.737L-116.589 474.435C-110.63 480.366 -101.857 479.282 -96.9936 472.014L41.4293 265.122C46.2924 257.853 45.4035 247.153 39.4441 241.221L-1.44744 200.524C-7.40689 194.593 -16.1802 195.677 -21.0433 202.945Z" fill="#57761E"/>
<path d="M-16.6164 47.2116L-33.2396 72.0573C-38.1027 79.3258 -37.2138 90.0262 -31.2544 95.9574L71.0094 197.736C76.9688 203.668 85.7422 202.584 90.6052 195.315L107.228 170.469C112.091 163.201 111.203 152.5 105.243 146.569L2.97943 44.7903C-2.98003 38.8591 -11.7534 39.9432 -16.6164 47.2116Z" fill="#57761E"/>
<path d="M143.432 206.5L86.8121 291.126C81.9491 298.395 82.8379 309.095 88.7974 315.026L137.756 363.752C143.715 369.684 152.488 368.6 157.351 361.331L213.971 276.705C218.834 269.437 217.945 258.736 211.986 252.805L163.028 204.079C157.068 198.148 148.295 199.232 143.432 206.5Z" fill="#57761E"/>
<path d="M223.948 286.636L167.328 371.262C162.465 378.53 163.354 389.231 169.313 395.162L218.271 443.888C224.231 449.819 233.004 448.735 237.867 441.467L294.487 356.841C299.35 349.572 298.461 338.872 292.502 332.941L243.543 284.214C237.584 278.283 228.811 279.367 223.948 286.636Z" fill="#57761E"/>
<path d="M274.735 411.209L247.846 451.397C242.983 458.666 243.872 469.366 249.832 475.297L270.537 495.904C276.496 501.836 285.269 500.752 290.133 493.483L317.021 453.295C321.884 446.026 320.995 435.326 315.036 429.394L294.331 408.787C288.371 402.856 279.598 403.94 274.735 411.209Z" fill="#57761E"/>
<path d="M304.466 366.772L298.725 375.352C293.862 382.62 294.751 393.321 300.71 399.252L321.416 419.859C327.375 425.79 336.148 424.706 341.011 417.438L346.752 408.857C351.615 401.589 350.727 390.888 344.767 384.957L324.062 364.35C318.102 358.419 309.329 359.503 304.466 366.772Z" fill="#57761E"/>
<path d="M165.191 35.1439L134.657 80.7811C129.794 88.0495 130.683 98.75 136.642 104.681L209.497 177.191C215.456 183.122 224.23 182.038 229.093 174.769L259.627 129.132C264.49 121.864 263.601 111.163 257.641 105.232L184.787 32.7226C178.827 26.7914 170.054 27.8754 165.191 35.1439Z" fill="#57761E"/>
<path d="M275.333 144.762L244.799 190.399C239.936 197.668 240.825 208.368 246.785 214.3L319.639 286.809C325.599 292.74 334.372 291.656 339.235 284.388L369.769 238.75C374.632 231.482 373.743 220.782 367.784 214.85L294.929 142.341C288.97 136.41 280.196 137.494 275.333 144.762Z" fill="#57761E"/>
<path d="M291.949 -25.7405L254.483 30.2579C249.62 37.5263 250.509 48.2268 256.468 54.158L461.713 258.43C467.672 264.361 476.446 263.277 481.309 256.008L518.775 200.01C523.638 192.741 522.749 182.041 516.79 176.11L311.545 -28.1618C305.586 -34.093 296.812 -33.0089 291.949 -25.7405Z" fill="#57761E"/>
<path d="M-69.1564 524.24L-121.469 602.429C-126.332 609.697 -125.443 620.398 -119.484 626.329L-31.9507 713.447C-25.9912 719.378 -17.2179 718.294 -12.3548 711.026L39.9579 632.837C44.8209 625.569 43.9321 614.868 37.9727 608.937L-49.5606 521.819C-55.52 515.888 -64.2934 516.972 -69.1564 524.24Z" fill="#57761E"/>
</g>
<defs>
<clipPath id="clip0_4408_134">
<rect width="710" height="671" fill="white" transform="matrix(0 -1 1 0 -238 710)"/>
</clipPath>
</defs>
</svg>
